Rosario-Italic.ufo
<glyph name="exclam" format="2">
  <advance width="246"/>
  <unicode hex="0021"/>
  <note>
exclam
</note>
  <outline>
    <contour>
      <point x="138" y="728" type="line"/>
      <point x="95" y="217" type="line"/>
      <point x="154" y="217" type="line"/>
      <point x="255" y="728" type="line"/>
    </contour>
    <contour>
      <point x="169" y="62" type="curve" smooth="yes"/>
      <point x="169" y="94"/>
      <point x="144" y="119"/>
      <point x="111" y="119" type="curve" smooth="yes"/>
      <point x="71" y="119"/>
      <point x="35" y="85"/>
      <point x="35" y="44" type="curve" smooth="yes"/>
      <point x="35" y="12"/>
      <point x="60" y="-13"/>
      <point x="93" y="-13" type="curve" smooth="yes"/>
      <point x="132" y="-13"/>
      <point x="169" y="22"/>
    </contour>
  </outline>
</glyph>
<glyph name="dollar" format="2">
  <advance width="535"/>
  <unicode hex="0024"/>
  <note>
dollar
</note>
  <outline>
    <contour>
      <point x="353" y="696" type="curve" smooth="yes"/>
      <point x="229" y="696"/>
      <point x="113" y="629"/>
      <point x="113" y="497" type="curve" smooth="yes"/>
      <point x="113" y="322"/>
      <point x="379" y="341"/>
      <point x="379" y="208" type="curve" smooth="yes"/>
      <point x="379" y="129"/>
      <point x="305" y="59"/>
      <point x="226" y="59" type="curve" smooth="yes"/>
      <point x="158" y="59"/>
      <point x="126" y="78"/>
      <point x="69" y="119" type="curve"/>
      <point x="27" y="44" type="line"/>
      <point x="88" y="10"/>
      <point x="156" y="-10"/>
      <point x="222" y="-10" type="curve" smooth="yes"/>
      <point x="358" y="-10"/>
      <point x="473" y="80"/>
      <point x="473" y="221" type="curve" smooth="yes"/>
      <point x="473" y="405"/>
      <point x="205" y="395"/>
      <point x="205" y="512" type="curve" smooth="yes"/>
      <point x="205" y="586"/>
      <point x="275" y="627"/>
      <point x="346" y="627" type="curve" smooth="yes"/>
      <point x="395" y="627"/>
      <point x="430" y="614"/>
      <point x="471" y="581" type="curve"/>
      <point x="513" y="649" type="line"/>
      <point x="465" y="681"/>
      <point x="410" y="696"/>
    </contour>
    <contour>
      <point x="239" y="13" type="line"/>
      <point x="193" y="13" type="line"/>
      <point x="131" y="-138" type="line"/>
      <point x="203" y="-138" type="line"/>
    </contour>
    <contour>
      <point x="318" y="668" type="line"/>
      <point x="366" y="668" type="line"/>
      <point x="426" y="812" type="line"/>
      <point x="352" y="812" type="line"/>
    </contour>
  </outline>
</glyph>
<glyph name="percent" format="2">
  <advance width="908"/>
  <unicode hex="0025"/>
  <note>
percent
</note>
  <outline>
    <contour>
      <point x="682" y="730" type="line"/>
      <point x="205" y="-7" type="line"/>
      <point x="269" y="-7" type="line"/>
      <point x="748" y="730" type="line"/>
    </contour>
    <contour>
      <point x="283" y="730" type="curve" smooth="yes"/>
      <point x="153" y="730"/>
      <point x="78" y="609"/>
      <point x="78" y="467" type="curve" smooth="yes"/>
      <point x="78" y="377"/>
      <point x="116" y="309"/>
      <point x="214" y="309" type="curve" smooth="yes"/>
      <point x="345" y="309"/>
      <point x="418" y="431"/>
      <point x="418" y="575" type="curve" smooth="yes"/>
      <point x="418" y="664"/>
      <point x="381" y="730"/>
    </contour>
    <contour>
      <point x="271" y="678" type="curve" smooth="yes"/>
      <point x="335" y="678"/>
      <point x="352" y="632"/>
      <point x="352" y="578" type="curve" smooth="yes"/>
      <point x="352" y="465"/>
      <point x="317" y="362"/>
      <point x="226" y="362" type="curve" smooth="yes"/>
      <point x="161" y="362"/>
      <point x="144" y="410"/>
      <point x="144" y="466" type="curve" smooth="yes"/>
      <point x="144" y="574"/>
      <point x="182" y="678"/>
    </contour>
    <contour>
      <point x="727" y="411" type="curve" smooth="yes"/>
      <point x="596" y="411"/>
      <point x="523" y="290"/>
      <point x="523" y="146" type="curve" smooth="yes"/>
      <point x="523" y="57"/>
      <point x="561.01" y="-10"/>
      <point x="658" y="-10" type="curve" smooth="yes"/>
      <point x="788" y="-10"/>
      <point x="863" y="113"/>
      <point x="863" y="254" type="curve" smooth="yes"/>
      <point x="863" y="344"/>
      <point x="825" y="411"/>
    </contour>
    <contour>
      <point x="715" y="358" type="curve" smooth="yes"/>
      <point x="780" y="358"/>
      <point x="796" y="312"/>
      <point x="796" y="257" type="curve" smooth="yes"/>
      <point x="796" y="145"/>
      <point x="761" y="43"/>
      <point x="670" y="43" type="curve" smooth="yes"/>
      <point x="606" y="43"/>
      <point x="588" y="90"/>
      <point x="588" y="145" type="curve" smooth="yes"/>
      <point x="588" y="254"/>
      <point x="626" y="358"/>
    </contour>
    <contour>
      <point x="283" y="730" type="line"/>
      <point x="271" y="678" type="line"/>
      <point x="696" y="678" type="line"/>
      <point x="703" y="730" type="line"/>
    </contour>
  </outline>
</glyph>
<glyph name="plus" format="2">
  <advance width="642"/>
  <unicode hex="002B"/>
  <note>
plus
</note>
  <outline>
    <contour>
      <point x="318" y="0" type="line"/>
      <point x="347" y="211" type="line"/>
      <point x="562" y="211" type="line"/>
      <point x="572" y="280" type="line"/>
      <point x="357" y="280" type="line"/>
      <point x="386" y="490" type="line"/>
      <point x="316" y="490" type="line"/>
      <point x="287" y="280" type="line"/>
      <point x="73" y="280" type="line"/>
      <point x="63" y="211" type="line"/>
      <point x="277" y="211" type="line"/>
      <point x="248" y="0" type="line"/>
    </contour>
  </outline>
</glyph>
<glyph name="comma" format="2">
  <advance width="251"/>
  <unicode hex="002C"/>
  <note>
comma
</note>
  <outline>
    <contour>
      <point x="171" y="50" type="curve" smooth="yes"/>
      <point x="171" y="88"/>
      <point x="148" y="120"/>
      <point x="105" y="120" type="curve" smooth="yes"/>
      <point x="69" y="120"/>
      <point x="36" y="97"/>
      <point x="36" y="54" type="curve" smooth="yes"/>
      <point x="36" y="16"/>
      <point x="76" y="1"/>
      <point x="76" y="-18" type="curve" smooth="yes"/>
      <point x="76" y="-37"/>
      <point x="59" y="-58"/>
      <point x="18" y="-92" type="curve"/>
      <point x="48" y="-125" type="line"/>
      <point x="107" y="-86"/>
      <point x="171" y="-22"/>
    </contour>
  </outline>
</glyph>
<glyph name="hyphen" format="2">
  <advance width="324"/>
  <unicode hex="002D"/>
  <note>
hyphen
</note>
  <outline>
    <contour>
      <point x="34" y="222" type="line"/>
      <point x="275" y="222" type="line"/>
      <point x="286" y="293" type="line"/>
      <point x="45" y="293" type="line"/>
    </contour>
  </outline>
</glyph>
<glyph name="zero" format="2">
  <advance width="533"/>
  <unicode hex="0030"/>
  <note>
zero
</note>
  <guideline x="118" y="460" angle="90"/>
  <guideline x="35" y="460" angle="90"/>
  <guideline x="498" y="460" angle="90"/>
  <guideline x="415" y="460" angle="90"/>
  <outline>
    <contour>
      <point x="296" y="503" type="curve" smooth="yes"/>
      <point x="132" y="503"/>
      <point x="35" y="355"/>
      <point x="35" y="206" type="curve" smooth="yes"/>
      <point x="35" y="85"/>
      <point x="106" y="-13"/>
      <point x="237" y="-13" type="curve" smooth="yes"/>
      <point x="402" y="-13"/>
      <point x="498" y="134"/>
      <point x="498" y="284" type="curve" smooth="yes"/>
      <point x="498" y="408"/>
      <point x="430" y="503"/>
    </contour>
    <contour>
      <point x="290" y="441" type="curve" smooth="yes"/>
      <point x="382" y="441"/>
      <point x="415" y="381"/>
      <point x="415" y="297" type="curve" smooth="yes"/>
      <point x="415" y="184"/>
      <point x="376" y="49"/>
      <point x="243" y="49" type="curve" smooth="yes"/>
      <point x="151" y="49"/>
      <point x="118" y="110"/>
      <point x="118" y="194" type="curve" smooth="yes"/>
      <point x="118" y="306"/>
      <point x="158" y="441"/>
    </contour>
  </outline>
</glyph>
<glyph name="two" format="2">
  <advance width="434"/>
  <unicode hex="0032"/>
  <note>
two
</note>
  <guideline x="416" y="460" angle="90"/>
  <guideline x="333" y="460" angle="90"/>
  <guideline x="452" y="509" angle="0"/>
  <guideline x="458" y="446" angle="0"/>
  <outline>
    <contour>
      <point x="272" y="509" type="curve" smooth="yes"/>
      <point x="206" y="509"/>
      <point x="127" y="482"/>
      <point x="66" y="434" type="curve"/>
      <point x="104" y="381" type="line"/>
      <point x="143" y="420"/>
      <point x="205" y="445"/>
      <point x="253" y="445" type="curve" smooth="yes"/>
      <point x="293" y="445"/>
      <point x="323" y="427"/>
      <point x="323" y="385" type="curve" smooth="yes"/>
      <point x="323" y="274"/>
      <point x="165" y="161"/>
      <point x="4" y="57" type="curve"/>
      <point x="-4" y="-1" type="line"/>
      <point x="370" y="-1" type="line"/>
      <point x="400" y="68" type="line"/>
      <point x="123" y="68" type="line"/>
      <point x="261" y="158"/>
      <point x="406" y="271"/>
      <point x="406" y="400" type="curve" smooth="yes"/>
      <point x="406" y="475"/>
      <point x="347" y="509"/>
    </contour>
  </outline>
</glyph>
<glyph name="seven" format="2">
  <advance width="406"/>
  <unicode hex="0037"/>
  <note>
seven
</note>
  <outline>
    <contour>
      <point x="61" y="497" type="line"/>
      <point x="30" y="422" type="line"/>
      <point x="339" y="422" type="line"/>
      <point x="-45" y="-185" type="line"/>
      <point x="57" y="-185" type="line"/>
      <point x="425" y="455" type="line"/>
      <point x="431" y="497" type="line"/>
    </contour>
  </outline>
</glyph>
<glyph name="eight" format="2">
  <advance width="471"/>
  <unicode hex="0038"/>
  <note>
eight
</note>
  <outline>
    <contour>
      <point x="316" y="729" type="curve" smooth="yes"/>
      <point x="217" y="729"/>
      <point x="104" y="649"/>
      <point x="104" y="520" type="curve" smooth="yes"/>
      <point x="104" y="439"/>
      <point x="152" y="391"/>
      <point x="205" y="347" type="curve" smooth="yes"/>
      <point x="266" y="297"/>
      <point x="333" y="259"/>
      <point x="333" y="188" type="curve" smooth="yes"/>
      <point x="333" y="114"/>
      <point x="275" y="49"/>
      <point x="203" y="49" type="curve" smooth="yes"/>
      <point x="153" y="49"/>
      <point x="110" y="82"/>
      <point x="110" y="147" type="curve" smooth="yes"/>
      <point x="110" y="230"/>
      <point x="159" y="293"/>
      <point x="241" y="342" type="curve"/>
      <point x="206" y="381" type="line"/>
      <point x="106" y="321"/>
      <point x="27" y="247"/>
      <point x="27" y="136" type="curve" smooth="yes"/>
      <point x="27" y="39"/>
      <point x="105" y="-11"/>
      <point x="196" y="-11" type="curve" smooth="yes"/>
      <point x="322" y="-11"/>
      <point x="431" y="81"/>
      <point x="431" y="211" type="curve" smooth="yes"/>
      <point x="431" y="310"/>
      <point x="358" y="361"/>
      <point x="295" y="408" type="curve" smooth="yes"/>
      <point x="244" y="446"/>
      <point x="198" y="479"/>
      <point x="198" y="541" type="curve" smooth="yes"/>
      <point x="198" y="608"/>
      <point x="243" y="671"/>
      <point x="308" y="671" type="curve" smooth="yes"/>
      <point x="347" y="671"/>
      <point x="383" y="644"/>
      <point x="383" y="589" type="curve" smooth="yes"/>
      <point x="383" y="530"/>
      <point x="343" y="460"/>
      <point x="268" y="417" type="curve"/>
      <point x="309" y="378" type="line"/>
      <point x="411" y="438"/>
      <point x="461" y="523"/>
      <point x="461" y="599" type="curve" smooth="yes"/>
      <point x="461" y="687"/>
      <point x="392" y="729"/>
    </contour>
  </outline>
</glyph>
<glyph name="nine" format="2">
  <advance width="524"/>
  <unicode hex="0039"/>
  <note>
nine
</note>
  <outline>
    <contour>
      <point x="303" y="509" type="curve" smooth="yes"/>
      <point x="161" y="509"/>
      <point x="45" y="389"/>
      <point x="45" y="250" type="curve" smooth="yes"/>
      <point x="45" y="165"/>
      <point x="96" y="91"/>
      <point x="210" y="91" type="curve" smooth="yes"/>
      <point x="261" y="91"/>
      <point x="321" y="110"/>
      <point x="370" y="150" type="curve"/>
      <point x="391" y="214" type="line"/>
      <point x="339" y="177"/>
      <point x="287" y="159"/>
      <point x="243" y="159" type="curve" smooth="yes"/>
      <point x="174" y="159"/>
      <point x="143" y="211"/>
      <point x="143" y="271" type="curve" smooth="yes"/>
      <point x="143" y="352"/>
      <point x="199" y="446"/>
      <point x="286" y="446" type="curve" smooth="yes"/>
      <point x="353" y="446"/>
      <point x="390" y="386"/>
      <point x="390" y="302" type="curve" smooth="yes"/>
      <point x="390" y="102"/>
      <point x="221" y="-83"/>
      <point x="2" y="-169" type="curve"/>
      <point x="16" y="-216" type="line"/>
      <point x="263" y="-138"/>
      <point x="487" y="66"/>
      <point x="487" y="311" type="curve" smooth="yes"/>
      <point x="487" y="446"/>
      <point x="402" y="509"/>
    </contour>
  </outline>
</glyph>
<glyph name="colon" format="2">
  <advance width="247"/>
  <unicode hex="003A"/>
  <note>
colon
</note>
  <outline>
    <contour>
      <point x="211" y="377" type="curve" smooth="yes"/>
      <point x="211" y="409"/>
      <point x="186" y="434"/>
      <point x="153" y="434" type="curve" smooth="yes"/>
      <point x="114" y="434"/>
      <point x="77" y="399"/>
      <point x="77" y="359" type="curve" smooth="yes"/>
      <point x="77" y="327"/>
      <point x="102" y="302"/>
      <point x="135" y="302" type="curve" smooth="yes"/>
      <point x="174" y="302"/>
      <point x="211" y="337"/>
    </contour>
    <contour>
      <point x="167" y="62" type="curve" smooth="yes"/>
      <point x="167" y="94"/>
      <point x="142" y="119"/>
      <point x="109" y="119" type="curve" smooth="yes"/>
      <point x="70" y="119"/>
      <point x="33" y="84"/>
      <point x="33" y="44" type="curve" smooth="yes"/>
      <point x="33" y="12"/>
      <point x="58" y="-13"/>
      <point x="91" y="-13" type="curve" smooth="yes"/>
      <point x="130" y="-13"/>
      <point x="167" y="22"/>
    </contour>
  </outline>
</glyph>
<glyph name="less" format="2">
  <advance width="630"/>
  <unicode hex="003C"/>
  <note>
less
</note>
  <outline>
    <contour>
      <point x="73" y="281" type="line"/>
      <point x="63" y="208" type="line"/>
      <point x="531" y="-7" type="line"/>
      <point x="541" y="68" type="line"/>
      <point x="161" y="243" type="line"/>
      <point x="591" y="418" type="line"/>
      <point x="601" y="494" type="line"/>
    </contour>
  </outline>
</glyph>
<glyph name="equal" format="2">
  <advance width="630"/>
  <unicode hex="003D"/>
  <note>
equal
</note>
  <outline>
    <contour>
      <point x="86" y="373" type="line"/>
      <point x="77" y="305" type="line"/>
      <point x="576" y="305" type="line"/>
      <point x="585" y="373" type="line"/>
    </contour>
    <contour>
      <point x="60" y="184" type="line"/>
      <point x="50" y="115" type="line"/>
      <point x="549" y="115" type="line"/>
      <point x="559" y="184" type="line"/>
    </contour>
  </outline>
</glyph>
<glyph name="greater" format="2">
  <advance width="630"/>
  <unicode hex="003E"/>
  <note>
greater
</note>
  <outline>
    <contour>
      <point x="43" y="68" type="line"/>
      <point x="33" y="-7" type="line"/>
      <point x="561" y="208" type="line"/>
      <point x="571" y="281" type="line"/>
      <point x="103" y="494" type="line"/>
      <point x="93" y="418" type="line"/>
      <point x="473" y="243" type="line"/>
    </contour>
  </outline>
</glyph>
<glyph name="I" format="2">
  <advance width="251"/>
  <unicode hex="0049"/>
  <note>
I
</note>
  <anchor x="91" y="0" name="bottom"/>
  <anchor x="83" y="0" name="ogonek"/>
  <anchor x="185" y="724" name="top"/>
  <outline>
    <contour>
      <point x="136" y="724" type="line"/>
      <point x="136" y="659" type="line"/>
      <point x="47" y="0" type="line"/>
      <point x="137" y="0" type="line"/>
      <point x="235" y="724" type="line"/>
    </contour>
  </outline>
</glyph>
<glyph name="K" format="2">
  <advance width="558"/>
  <unicode hex="004B"/>
  <note>
K
</note>
  <anchor x="262" y="0" name="bottom"/>
  <outline>
    <contour>
      <point x="232" y="724" type="line"/>
      <point x="133" y="724" type="line"/>
      <point x="133" y="659" type="line"/>
      <point x="44" y="0" type="line"/>
      <point x="134" y="0" type="line"/>
    </contour>
    <contour>
      <point x="504" y="724" type="line"/>
      <point x="219" y="391" type="line"/>
      <point x="407" y="0" type="line"/>
      <point x="511" y="0" type="line"/>
      <point x="317" y="404" type="line"/>
      <point x="590" y="724" type="line"/>
    </contour>
  </outline>
</glyph>
<glyph name="L" format="2">
  <advance width="471"/>
  <unicode hex="004C"/>
  <note>
L
</note>
  <anchor x="245" y="0" name="bottom"/>
  <anchor x="141" y="355" name="center"/>
  <anchor x="179" y="724" name="top"/>
  <anchor x="194" y="492" name="topright"/>
  <outline>
    <contour>
      <point x="234" y="724" type="line"/>
      <point x="134" y="724" type="line"/>
      <point x="134" y="659" type="line"/>
      <point x="45" y="0" type="line"/>
      <point x="425" y="0" type="line"/>
      <point x="435" y="69" type="line"/>
      <point x="146" y="69" type="line"/>
    </contour>
  </outline>
</glyph>
<glyph name="V" format="2">
  <advance width="518"/>
  <unicode hex="0056"/>
  <note>
V
</note>
  <outline>
    <contour>
      <point x="139" y="724" type="curve"/>
      <point x="44" y="724" type="line"/>
      <point x="185" y="-3" type="line"/>
      <point x="241" y="-3" type="line"/>
      <point x="578" y="724" type="line"/>
      <point x="501" y="724" type="line"/>
      <point x="414" y="534"/>
      <point x="322" y="343"/>
      <point x="241" y="153" type="curve"/>
      <point x="211" y="343"/>
      <point x="173" y="534"/>
    </contour>
  </outline>
</glyph>
<glyph name="Y" format="2">
  <advance width="477"/>
  <unicode hex="0059"/>
  <note>
Y
</note>
  <anchor x="197" y="0" name="bottom"/>
  <anchor x="298" y="724" name="top"/>
  <outline>
    <contour>
      <point x="145" y="724" type="line"/>
      <point x="42" y="724" type="line"/>
      <point x="199" y="359" type="line"/>
      <point x="151" y="0" type="line"/>
      <point x="242" y="0" type="line"/>
      <point x="290" y="358" type="line"/>
      <point x="538" y="724" type="line"/>
      <point x="454" y="724" type="line"/>
      <point x="267" y="444" type="line"/>
    </contour>
  </outline>
</glyph>
<glyph name="backslash" format="2">
  <advance width="359"/>
  <unicode hex="005C"/>
  <note>
backslash
</note>
  <outline>
    <contour>
      <point x="5" y="724" type="line"/>
      <point x="257" y="0" type="line"/>
      <point x="321" y="0" type="line"/>
      <point x="72" y="724" type="line"/>
    </contour>
  </outline>
</glyph>
<glyph name="bracketright" format="2">
  <advance width="327"/>
  <unicode hex="005D"/>
  <note>
bracketright
</note>
  <outline>
    <contour>
      <point x="-10" y="-128" type="line"/>
      <point x="188" y="-128" type="line"/>
      <point x="309" y="724" type="line"/>
      <point x="111" y="724" type="line"/>
      <point x="103" y="676" type="line"/>
      <point x="224" y="676" type="line"/>
      <point x="118" y="-79" type="line"/>
      <point x="-2" y="-79" type="line"/>
    </contour>
  </outline>
</glyph>
<glyph name="grave" format="2">
  <advance width="277"/>
  <unicode hex="0060"/>
  <note>
grave
</note>
  <anchor x="242" y="490" name="_top"/>
  <outline>
    <contour>
      <point x="221" y="733" type="line"/>
      <point x="99" y="733" type="line"/>
      <point x="217" y="581" type="line"/>
      <point x="295" y="581" type="line"/>
    </contour>
  </outline>
</glyph>
<glyph name="b" format="2">
  <advance width="492"/>
  <unicode hex="0062"/>
  <note>
b
</note>
  <outline>
    <contour>
      <point x="40" y="33" type="line"/>
      <point x="118" y="52" type="line"/>
      <point x="161" y="362" type="line"/>
      <point x="184" y="386"/>
      <point x="240" y="432"/>
      <point x="295" y="432" type="curve" smooth="yes"/>
      <point x="352" y="432"/>
      <point x="374" y="372"/>
      <point x="374" y="290" type="curve" smooth="yes"/>
      <point x="374" y="176"/>
      <point x="324" y="49"/>
      <point x="204" y="49" type="curve" smooth="yes"/>
      <point x="163" y="49"/>
      <point x="126" y="55"/>
      <point x="80" y="89" type="curve"/>
      <point x="40" y="33" type="line"/>
      <point x="88" y="1"/>
      <point x="152" y="-13"/>
      <point x="207" y="-13" type="curve" smooth="yes"/>
      <point x="361" y="-13"/>
      <point x="457" y="125"/>
      <point x="457" y="300" type="curve" smooth="yes"/>
      <point x="457" y="415"/>
      <point x="416" y="503"/>
      <point x="311" y="503" type="curve" smooth="yes"/>
      <point x="253" y="503"/>
      <point x="196" y="461"/>
      <point x="171" y="436" type="curve"/>
      <point x="215" y="764" type="line"/>
      <point x="127" y="764" type="line"/>
      <point x="127" y="707" type="line"/>
    </contour>
  </outline>
</glyph>
<glyph name="c" format="2">
  <advance width="420"/>
  <unicode hex="0063"/>
  <note>
c
</note>
  <anchor x="206" y="0" name="bottom"/>
  <anchor x="278" y="490" name="top"/>
  <outline>
    <contour>
      <point x="379" y="392" type="curve"/>
      <point x="429" y="452" type="line"/>
      <point x="384" y="489"/>
      <point x="335" y="503"/>
      <point x="289" y="503" type="curve" smooth="yes"/>
      <point x="119" y="503"/>
      <point x="35" y="345"/>
      <point x="35" y="204" type="curve" smooth="yes"/>
      <point x="35" y="61"/>
      <point x="111" y="-13"/>
      <point x="217" y="-13" type="curve" smooth="yes"/>
      <point x="272" y="-13"/>
      <point x="328" y="3"/>
      <point x="382" y="36" type="curve"/>
      <point x="358" y="86" type="line"/>
      <point x="310" y="65"/>
      <point x="268" y="54"/>
      <point x="233" y="54" type="curve" smooth="yes"/>
      <point x="160" y="54"/>
      <point x="118" y="103"/>
      <point x="118" y="214" type="curve" smooth="yes"/>
      <point x="118" y="320"/>
      <point x="171" y="436"/>
      <point x="283" y="436" type="curve" smooth="yes"/>
      <point x="315" y="436"/>
      <point x="347" y="422"/>
    </contour>
  </outline>
</glyph>
<glyph name="f" format="2">
  <advance width="269"/>
  <unicode hex="0066"/>
  <note>
f
</note>
  <outline>
    <contour>
      <point x="-93" y="-164" type="curve"/>
      <point x="-107" y="-222" type="line"/>
      <point x="13" y="-254"/>
      <point x="103" y="-197"/>
      <point x="122" y="-61" type="curve" smooth="yes"/>
      <point x="189" y="427" type="line"/>
      <point x="301" y="427" type="line"/>
      <point x="309" y="490" type="line"/>
      <point x="197" y="490" type="line"/>
      <point x="209" y="593"/>
      <point x="229" y="707"/>
      <point x="343" y="707" type="curve" smooth="yes"/>
      <point x="371" y="707"/>
      <point x="397" y="694"/>
      <point x="418" y="672" type="curve"/>
      <point x="457" y="731" type="line"/>
      <point x="425" y="753"/>
      <point x="391" y="770"/>
      <point x="337" y="770" type="curve" smooth="yes"/>
      <point x="195" y="770"/>
      <point x="151" y="659"/>
      <point x="120" y="532" type="curve" smooth="yes"/>
      <point x="109" y="488"/>
      <point x="70" y="490"/>
      <point x="46" y="490" type="curve"/>
      <point x="38" y="427" type="line"/>
      <point x="109" y="427" type="line"/>
      <point x="44" y="-52" type="line" smooth="yes"/>
      <point x="33" y="-138"/>
      <point x="-9" y="-182"/>
    </contour>
  </outline>
</glyph>
<glyph name="h" format="2">
  <advance width="492"/>
  <unicode hex="0068"/>
  <note>
h
</note>
  <anchor x="213" y="0" name="bottom"/>
  <anchor x="210" y="607" name="center"/>
  <anchor x="172" y="724" name="top"/>
  <outline>
    <contour>
      <point x="218" y="764" type="line"/>
      <point x="130" y="764" type="line"/>
      <point x="130" y="707" type="line"/>
      <point x="35" y="0" type="line"/>
      <point x="115" y="0" type="line"/>
      <point x="164" y="362" type="line"/>
      <point x="179" y="375"/>
      <point x="243" y="431"/>
      <point x="302" y="431" type="curve" smooth="yes"/>
      <point x="354" y="431"/>
      <point x="366" y="395"/>
      <point x="366" y="354" type="curve" smooth="yes"/>
      <point x="366" y="337"/>
      <point x="364" y="318"/>
      <point x="362" y="302" type="curve" smooth="yes"/>
      <point x="322" y="0" type="line"/>
      <point x="413" y="0" type="line"/>
      <point x="411" y="58" type="line"/>
      <point x="446" y="328" type="line" smooth="yes"/>
      <point x="448" y="344"/>
      <point x="449" y="359"/>
      <point x="449" y="373" type="curve" smooth="yes"/>
      <point x="449" y="471"/>
      <point x="395" y="503"/>
      <point x="323" y="503" type="curve" smooth="yes"/>
      <point x="263" y="503"/>
      <point x="210" y="467"/>
      <point x="172" y="433" type="curve"/>
    </contour>
  </outline>
</glyph>
<glyph name="j" format="2">
  <advance width="229"/>
  <unicode hex="006A"/>
  <note>
j
</note>
  <outline>
    <contour>
      <point x="229" y="668" type="curve" smooth="yes"/>
      <point x="229" y="696"/>
      <point x="208" y="718"/>
      <point x="177" y="718" type="curve" smooth="yes"/>
      <point x="141" y="718"/>
      <point x="112" y="686"/>
      <point x="112" y="652" type="curve" smooth="yes"/>
      <point x="112" y="625"/>
      <point x="132" y="601"/>
      <point x="163" y="601" type="curve" smooth="yes"/>
      <point x="199" y="601"/>
      <point x="229" y="634"/>
    </contour>
    <contour>
      <point x="189" y="490" type="line"/>
      <point x="102" y="490" type="line"/>
      <point x="102" y="433" type="line"/>
      <point x="44" y="13" type="line" smooth="yes"/>
      <point x="34" y="-59"/>
      <point x="22" y="-140"/>
      <point x="-64" y="-178" type="curve"/>
      <point x="-53" y="-228" type="line"/>
      <point x="73" y="-211"/>
      <point x="111" y="-77"/>
      <point x="125" y="25" type="curve" smooth="yes"/>
    </contour>
  </outline>
</glyph>
<glyph name="l" format="2">
  <advance width="227"/>
  <unicode hex="006C"/>
  <note>
l
</note>
  <anchor x="76" y="0" name="bottom"/>
  <anchor x="131" y="391" name="center"/>
  <anchor x="175" y="728" name="top"/>
  <anchor x="43" y="521" name="topright"/>
  <outline>
    <contour>
      <point x="223" y="764" type="line"/>
      <point x="135" y="764" type="line"/>
      <point x="135" y="707" type="line"/>
      <point x="39" y="0" type="line"/>
      <point x="128" y="0" type="line"/>
      <point x="128" y="58" type="line"/>
    </contour>
  </outline>
</glyph>
<glyph name="o" format="2">
  <advance width="499"/>
  <unicode hex="006F"/>
  <note>
o
</note>
  <guideline x="468" y="460" angle="90"/>
  <guideline x="385" y="460" angle="90"/>
  <guideline x="119" y="460" angle="90"/>
  <guideline x="36" y="460" angle="90"/>
  <anchor x="217" y="0" name="bottom"/>
  <anchor x="250" y="252" name="center"/>
  <anchor x="261" y="0" name="ogonek"/>
  <anchor x="284" y="490" name="top"/>
  <anchor x="312" y="490" name="topright"/>
  <outline>
    <contour>
      <point x="216" y="-13" type="curve" smooth="yes"/>
      <point x="378" y="-13"/>
      <point x="463" y="145"/>
      <point x="463" y="286" type="curve" smooth="yes"/>
      <point x="463" y="400"/>
      <point x="409" y="503"/>
      <point x="283" y="503" type="curve" smooth="yes"/>
      <point x="121" y="503"/>
      <point x="36" y="345"/>
      <point x="36" y="204" type="curve" smooth="yes"/>
      <point x="36" y="90"/>
      <point x="90" y="-13"/>
    </contour>
    <contour>
      <point x="223" y="49" type="curve" smooth="yes"/>
      <point x="149" y="49"/>
      <point x="119" y="125"/>
      <point x="119" y="209" type="curve" smooth="yes"/>
      <point x="119" y="318"/>
      <point x="171" y="441"/>
      <point x="276" y="441" type="curve" smooth="yes"/>
      <point x="350" y="441"/>
      <point x="380" y="365"/>
      <point x="380" y="281" type="curve" smooth="yes"/>
      <point x="380" y="172"/>
      <point x="328" y="49"/>
    </contour>
  </outline>
</glyph>
<glyph name="p" format="2">
  <advance width="497"/>
  <unicode hex="0070"/>
  <note>
p
</note>
  <outline>
    <contour>
      <point x="317" y="503" type="curve" smooth="yes"/>
      <point x="257" y="503"/>
      <point x="203" y="465"/>
      <point x="169" y="429" type="curve"/>
      <point x="169" y="452"/>
      <point x="167" y="467"/>
      <point x="161" y="501" type="curve"/>
      <point x="73" y="490" type="line"/>
      <point x="83" y="459"/>
      <point x="87" y="431"/>
      <point x="87" y="405" type="curve" smooth="yes"/>
      <point x="87" y="381"/>
      <point x="84" y="357"/>
      <point x="81" y="333" type="curve" smooth="yes"/>
      <point x="8" y="-224" type="line"/>
      <point x="96" y="-224" type="line"/>
      <point x="96" y="-169" type="line"/>
      <point x="118" y="1" type="line"/>
      <point x="143" y="-7"/>
      <point x="173" y="-13"/>
      <point x="212" y="-13" type="curve" smooth="yes"/>
      <point x="366" y="-13"/>
      <point x="462" y="125"/>
      <point x="462" y="300" type="curve" smooth="yes"/>
      <point x="462" y="415"/>
      <point x="421" y="503"/>
    </contour>
    <contour>
      <point x="300" y="432" type="curve" smooth="yes"/>
      <point x="357" y="432"/>
      <point x="379" y="372"/>
      <point x="379" y="290" type="curve" smooth="yes"/>
      <point x="379" y="176"/>
      <point x="329" y="49"/>
      <point x="209" y="49" type="curve" smooth="yes"/>
      <point x="177" y="49"/>
      <point x="145" y="59"/>
      <point x="128" y="71" type="curve"/>
      <point x="166" y="362" type="line"/>
      <point x="189" y="386"/>
      <point x="245" y="432"/>
    </contour>
  </outline>
</glyph>
<glyph name="r" format="2">
  <advance width="334"/>
  <unicode hex="0072"/>
  <note>
r
</note>
  <anchor x="88" y="0" name="bottom"/>
  <anchor x="201" y="490" name="top"/>
  <outline>
    <contour>
      <point x="168" y="502" type="curve"/>
      <point x="76" y="491" type="line"/>
      <point x="90" y="466"/>
      <point x="93" y="427"/>
      <point x="93" y="405" type="curve" smooth="yes"/>
      <point x="93" y="389"/>
      <point x="92" y="374"/>
      <point x="90" y="358" type="curve" smooth="yes"/>
      <point x="44" y="0" type="line"/>
      <point x="127" y="0" type="line"/>
      <point x="170" y="321" type="line"/>
      <point x="209" y="375"/>
      <point x="255" y="411"/>
      <point x="322" y="411" type="curve"/>
      <point x="354" y="502" type="line"/>
      <point x="283" y="502"/>
      <point x="217" y="460"/>
      <point x="178" y="411" type="curve"/>
      <point x="178" y="451"/>
      <point x="176" y="476"/>
    </contour>
  </outline>
</glyph>
<glyph name="v" format="2">
  <advance width="418"/>
  <unicode hex="0076"/>
  <note>
v
</note>
  <outline>
    <contour>
      <point x="126" y="490" type="curve"/>
      <point x="42" y="490" type="line"/>
      <point x="143" y="-5" type="line"/>
      <point x="216" y="-5" type="line"/>
      <point x="451" y="490" type="line"/>
      <point x="376" y="490" type="line"/>
      <point x="315" y="361"/>
      <point x="251" y="233"/>
      <point x="200" y="104" type="curve"/>
      <point x="180" y="233"/>
      <point x="152" y="361"/>
    </contour>
  </outline>
</glyph>
<glyph name="w" format="2">
  <advance width="610"/>
  <unicode hex="0077"/>
  <note>
w
</note>
  <anchor x="345" y="490" name="top"/>
  <outline>
    <contour>
      <point x="124" y="490" type="curve"/>
      <point x="42" y="490" type="line"/>
      <point x="115" y="-5" type="line"/>
      <point x="173" y="-5" type="line"/>
      <point x="222" y="107"/>
      <point x="273" y="222"/>
      <point x="322" y="342" type="curve"/>
      <point x="338" y="220"/>
      <point x="353" y="107"/>
      <point x="370" y="-5" type="curve"/>
      <point x="428" y="-5" type="line"/>
      <point x="643" y="490" type="line"/>
      <point x="572" y="490" type="line"/>
      <point x="524" y="379"/>
      <point x="474" y="268"/>
      <point x="426" y="146" type="curve"/>
      <point x="410" y="267"/>
      <point x="394" y="379"/>
      <point x="377" y="490" type="curve"/>
      <point x="319" y="490" type="line"/>
      <point x="271" y="379"/>
      <point x="220" y="265"/>
      <point x="172" y="146" type="curve"/>
      <point x="157" y="265"/>
      <point x="141" y="379"/>
    </contour>
  </outline>
</glyph>
<glyph name="y" format="2">
  <advance width="409"/>
  <unicode hex="0079"/>
  <note>
y
</note>
  <anchor x="283" y="0" name="bottom"/>
  <anchor x="245" y="490" name="top"/>
  <outline>
    <contour>
      <point x="-31" y="-164" type="curve"/>
      <point x="-40" y="-230" type="line"/>
      <point x="77" y="-227"/>
      <point x="156" y="-153"/>
      <point x="203" y="-51" type="curve" smooth="yes"/>
      <point x="451" y="490" type="line"/>
      <point x="375" y="490" type="line"/>
      <point x="318" y="366"/>
      <point x="258" y="241"/>
      <point x="201" y="108" type="curve"/>
      <point x="179" y="237"/>
      <point x="154" y="366"/>
      <point x="130" y="490" type="curve"/>
      <point x="45" y="490" type="line"/>
      <point x="149" y="3" type="line"/>
      <point x="102" y="-107"/>
      <point x="54" y="-160"/>
    </contour>
  </outline>
</glyph>
<glyph name="z" format="2">
  <advance width="433"/>
  <unicode hex="007A"/>
  <note>
z
</note>
  <anchor x="255" y="490" name="top"/>
  <outline>
    <contour>
      <point x="96" y="490" type="line"/>
      <point x="87" y="427" type="line"/>
      <point x="313" y="427" type="line"/>
      <point x="18" y="48" type="line"/>
      <point x="18" y="0" type="line"/>
      <point x="372" y="0" type="line"/>
      <point x="382" y="63" type="line"/>
      <point x="126" y="63" type="line"/>
      <point x="423" y="443" type="line"/>
      <point x="423" y="490" type="line"/>
    </contour>
  </outline>
</glyph>
<glyph name="braceleft" format="2">
  <advance width="350"/>
  <unicode hex="007B"/>
  <note>
braceleft
</note>
  <outline>
    <contour>
      <point x="214" y="-135" type="curve" smooth="yes"/>
      <point x="239" y="-135" type="line"/>
      <point x="245" y="-88" type="line"/>
      <point x="180" y="-88"/>
      <point x="159" y="-75"/>
      <point x="168" y="-8" type="curve" smooth="yes"/>
      <point x="193" y="170" type="line" smooth="yes"/>
      <point x="201" y="224"/>
      <point x="199" y="280"/>
      <point x="145" y="300" type="curve"/>
      <point x="205" y="320"/>
      <point x="221" y="377"/>
      <point x="229" y="431" type="curve" smooth="yes"/>
      <point x="253" y="601" type="line" smooth="yes"/>
      <point x="263" y="672"/>
      <point x="281" y="689"/>
      <point x="355" y="689" type="curve"/>
      <point x="361" y="736" type="line"/>
      <point x="339" y="736" type="line" smooth="yes"/>
      <point x="231" y="736"/>
      <point x="182" y="674"/>
      <point x="168" y="573" type="curve" smooth="yes"/>
      <point x="147" y="420" type="line" smooth="yes"/>
      <point x="141" y="376"/>
      <point x="126" y="323"/>
      <point x="69" y="323" type="curve"/>
      <point x="63" y="278" type="line"/>
      <point x="112" y="278"/>
      <point x="121" y="234"/>
      <point x="115" y="192" type="curve" smooth="yes"/>
      <point x="92" y="28" type="line" smooth="yes"/>
      <point x="78" y="-73"/>
      <point x="109" y="-135"/>
    </contour>
  </outline>
</glyph>
<glyph name="sterling" format="2">
  <advance width="581"/>
  <unicode hex="00A3"/>
  <note>
sterling
</note>
  <outline>
    <contour>
      <point x="31" y="69" type="line"/>
      <point x="21" y="0" type="line"/>
      <point x="500" y="0" type="line"/>
      <point x="510" y="69" type="line"/>
      <point x="218" y="69" type="line"/>
      <point x="279" y="506" type="line" smooth="yes"/>
      <point x="288" y="572"/>
      <point x="330" y="628"/>
      <point x="401" y="628" type="curve" smooth="yes"/>
      <point x="447" y="628"/>
      <point x="478" y="596"/>
      <point x="492" y="557" type="curve"/>
      <point x="573" y="599" type="line"/>
      <point x="544" y="660"/>
      <point x="484" y="697"/>
      <point x="412" y="697" type="curve" smooth="yes"/>
      <point x="292" y="697"/>
      <point x="202" y="627"/>
      <point x="185" y="504" type="curve" smooth="yes"/>
      <point x="124" y="69" type="line"/>
    </contour>
    <contour>
      <point x="80" y="298" type="line"/>
      <point x="404" y="298" type="line"/>
      <point x="423" y="360" type="line"/>
      <point x="99" y="360" type="line"/>
    </contour>
  </outline>
</glyph>
<glyph name="yen" format="2">
  <advance width="604"/>
  <unicode hex="00A5"/>
  <note>
yen
</note>
  <outline>
    <contour>
      <point x="214" y="697" type="line"/>
      <point x="106" y="697" type="line"/>
      <point x="271" y="329" type="line"/>
      <point x="225" y="0" type="line"/>
      <point x="320" y="0" type="line"/>
      <point x="366" y="329" type="line"/>
      <point x="627" y="697" type="line"/>
      <point x="540" y="697" type="line"/>
      <point x="343" y="414" type="line"/>
    </contour>
    <contour>
      <point x="98" y="389" type="line"/>
      <point x="79" y="327" type="line"/>
      <point x="543" y="327" type="line"/>
      <point x="562" y="389" type="line"/>
    </contour>
    <contour>
      <point x="79" y="253" type="line"/>
      <point x="60" y="191" type="line"/>
      <point x="524" y="191" type="line"/>
      <point x="543" y="253" type="line"/>
    </contour>
  </outline>
</glyph>
<glyph name="brokenbar" format="2">
  <advance width="238"/>
  <unicode hex="00A6"/>
  <note>
brokenbar
</note>
  <outline>
    <contour>
      <point x="144" y="742" type="line"/>
      <point x="95" y="393" type="line"/>
      <point x="163" y="393" type="line"/>
      <point x="212" y="742" type="line"/>
    </contour>
    <contour>
      <point x="73" y="233" type="line"/>
      <point x="24" y="-115" type="line"/>
      <point x="92" y="-115" type="line"/>
      <point x="141" y="233" type="line"/>
    </contour>
  </outline>
</glyph>
<glyph name="copyright" format="2">
  <advance width="639"/>
  <unicode hex="00A9"/>
  <note>
copyright
</note>
  <outline>
    <contour>
      <point x="592" y="250" type="curve" smooth="yes"/>
      <point x="592" y="399"/>
      <point x="469" y="522"/>
      <point x="320" y="522" type="curve" smooth="yes"/>
      <point x="170" y="522"/>
      <point x="48" y="400"/>
      <point x="48" y="250" type="curve" smooth="yes"/>
      <point x="48" y="100"/>
      <point x="170" y="-22"/>
      <point x="320" y="-22" type="curve" smooth="yes"/>
      <point x="469" y="-22"/>
      <point x="592" y="101"/>
    </contour>
    <contour>
      <point x="553" y="250" type="curve" smooth="yes"/>
      <point x="553" y="122"/>
      <point x="448" y="17"/>
      <point x="320" y="17" type="curve" smooth="yes"/>
      <point x="192" y="17"/>
      <point x="87" y="122"/>
      <point x="87" y="250" type="curve" smooth="yes"/>
      <point x="87" y="378"/>
      <point x="192" y="483"/>
      <point x="320" y="483" type="curve" smooth="yes"/>
      <point x="448" y="483"/>
      <point x="553" y="378"/>
    </contour>
    <contour>
      <point x="436" y="119" type="curve"/>
      <point x="410" y="162" type="line"/>
      <point x="383" y="144"/>
      <point x="364" y="134"/>
      <point x="331" y="134" type="curve" smooth="yes"/>
      <point x="269" y="134"/>
      <point x="242" y="204"/>
      <point x="242" y="256" type="curve" smooth="yes"/>
      <point x="242" y="306"/>
      <point x="269" y="370"/>
      <point x="328" y="370" type="curve" smooth="yes"/>
      <point x="360" y="370"/>
      <point x="377" y="363"/>
      <point x="401" y="343" type="curve"/>
      <point x="431" y="381" type="line"/>
      <point x="403" y="399"/>
      <point x="369" y="414"/>
      <point x="336" y="414" type="curve" smooth="yes"/>
      <point x="240" y="414"/>
      <point x="181" y="345"/>
      <point x="181" y="251" type="curve" smooth="yes"/>
      <point x="181" y="162"/>
      <point x="234" y="88"/>
      <point x="328" y="88" type="curve" smooth="yes"/>
      <point x="374" y="88"/>
      <point x="397" y="97"/>
    </contour>
  </outline>
</glyph>
<glyph name="degree" format="2">
  <advance width="391"/>
  <unicode hex="00B0"/>
  <note>
degree
</note>
  <outline>
    <contour>
      <point x="398" y="614" type="curve" smooth="yes"/>
      <point x="398" y="687"/>
      <point x="342" y="743"/>
      <point x="265" y="743" type="curve" smooth="yes"/>
      <point x="175" y="743"/>
      <point x="92" y="664"/>
      <point x="92" y="572" type="curve" smooth="yes"/>
      <point x="92" y="498"/>
      <point x="148" y="443"/>
      <point x="224" y="443" type="curve" smooth="yes"/>
      <point x="315" y="443"/>
      <point x="398" y="520"/>
    </contour>
    <contour>
      <point x="334" y="606" type="curve" smooth="yes"/>
      <point x="334" y="549"/>
      <point x="283" y="503"/>
      <point x="231" y="503" type="curve" smooth="yes"/>
      <point x="187" y="503"/>
      <point x="156" y="535"/>
      <point x="156" y="580" type="curve" smooth="yes"/>
      <point x="156" y="636"/>
      <point x="206" y="683"/>
      <point x="258" y="683" type="curve" smooth="yes"/>
      <point x="302" y="683"/>
      <point x="334" y="650"/>
    </contour>
  </outline>
</glyph>
<glyph name="threesuperior" format="2">
  <advance width="455"/>
  <unicode hex="00B3"/>
  <note>
uni00B3
</note>
  <outline>
    <contour>
      <point x="106" y="474" type="curve"/>
      <point x="109" y="423" type="line"/>
      <point x="377" y="433"/>
      <point x="440" y="558"/>
      <point x="440" y="630" type="curve" smooth="yes"/>
      <point x="440" y="687"/>
      <point x="398" y="721"/>
      <point x="344" y="728" type="curve"/>
      <point x="390" y="746"/>
      <point x="449" y="785"/>
      <point x="449" y="852" type="curve" smooth="yes"/>
      <point x="449" y="910"/>
      <point x="392" y="928"/>
      <point x="339" y="928" type="curve" smooth="yes"/>
      <point x="283" y="928"/>
      <point x="210" y="902"/>
      <point x="162" y="866" type="curve"/>
      <point x="187" y="820" type="line"/>
      <point x="219" y="845"/>
      <point x="273" y="870"/>
      <point x="313" y="870" type="curve" smooth="yes"/>
      <point x="350" y="870"/>
      <point x="374" y="856"/>
      <point x="374" y="830" type="curve" smooth="yes"/>
      <point x="374" y="763"/>
      <point x="284" y="735"/>
      <point x="229" y="724" type="curve"/>
      <point x="229" y="677" type="line"/>
      <point x="230" y="677"/>
      <point x="246" y="679"/>
      <point x="264" y="679" type="curve" smooth="yes"/>
      <point x="309" y="679"/>
      <point x="363" y="672"/>
      <point x="363" y="618" type="curve" smooth="yes"/>
      <point x="363" y="540"/>
      <point x="269" y="482"/>
    </contour>
  </outline>
</glyph>
<glyph name="acute" format="2">
  <advance width="282"/>
  <unicode hex="00B4"/>
  <note>
acute
</note>
  <anchor x="110" y="490" name="_top"/>
  <outline>
    <contour>
      <point x="197" y="733" type="line"/>
      <point x="79" y="581" type="line"/>
      <point x="157" y="581" type="line"/>
      <point x="319" y="733" type="line"/>
    </contour>
  </outline>
</glyph>
<glyph name="cedilla" format="2">
  <advance width="200"/>
  <unicode hex="00B8"/>
  <note>
cedilla
</note>
  <anchor x="60" y="0" name="_bottom"/>
  <outline>
    <contour>
      <point x="115" y="-117" type="curve" smooth="yes"/>
      <point x="115" y="-69"/>
      <point x="73" y="-51"/>
      <point x="57" y="-46" type="curve"/>
      <point x="87" y="8" type="line"/>
      <point x="42" y="8" type="line"/>
      <point x="-4" y="-71" type="line"/>
      <point x="19" y="-79"/>
      <point x="43" y="-93"/>
      <point x="43" y="-119" type="curve" smooth="yes"/>
      <point x="43" y="-157"/>
      <point x="0" y="-173"/>
      <point x="-30" y="-176" type="curve"/>
      <point x="-22" y="-218" type="line"/>
      <point x="48" y="-212"/>
      <point x="115" y="-178"/>
    </contour>
  </outline>
</glyph>
<glyph name="ordmasculine" format="2">
  <advance width="355"/>
  <unicode hex="00BA"/>
  <note>
ordmasculine
</note>
  <outline>
    <contour>
      <point x="364" y="582" type="curve" smooth="yes"/>
      <point x="364" y="657"/>
      <point x="325" y="722"/>
      <point x="242" y="722" type="curve" smooth="yes"/>
      <point x="137" y="722"/>
      <point x="75" y="615"/>
      <point x="75" y="522" type="curve" smooth="yes"/>
      <point x="75" y="447"/>
      <point x="114" y="383"/>
      <point x="197" y="383" type="curve" smooth="yes"/>
      <point x="304" y="383"/>
      <point x="364" y="488"/>
    </contour>
    <contour>
      <point x="303" y="579" type="curve" smooth="yes"/>
      <point x="303" y="520"/>
      <point x="273" y="431"/>
      <point x="203" y="431" type="curve" smooth="yes"/>
      <point x="152" y="431"/>
      <point x="136" y="486"/>
      <point x="136" y="529" type="curve" smooth="yes"/>
      <point x="136" y="587"/>
      <point x="168" y="674"/>
      <point x="236" y="674" type="curve" smooth="yes"/>
      <point x="288" y="674"/>
      <point x="303" y="623"/>
    </contour>
    <contour>
      <point x="69" y="277" type="line"/>
      <point x="297" y="277" type="line"/>
      <point x="306" y="331" type="line"/>
      <point x="77" y="331" type="line"/>
    </contour>
  </outline>
</glyph>
<glyph name="guillemetright" format="2">
  <advance width="454"/>
  <unicode hex="00BB"/>
  <note>
guillemotright
</note>
  <outline>
    <contour>
      <point x="45" y="183" type="line"/>
      <point x="106" y="172" type="line"/>
      <point x="274" y="333" type="line"/>
      <point x="147" y="493" type="line"/>
      <point x="86" y="485" type="line"/>
      <point x="184" y="334" type="line"/>
    </contour>
    <contour>
      <point x="194" y="183" type="line"/>
      <point x="254" y="172" type="line"/>
      <point x="422" y="333" type="line"/>
      <point x="295" y="493" type="line"/>
      <point x="235" y="485" type="line"/>
      <point x="332" y="334" type="line"/>
    </contour>
  </outline>
</glyph>
<glyph name="onehalf" format="2">
  <advance width="1151"/>
  <unicode hex="00BD"/>
  <note>
onehalf
</note>
  <outline>
    <contour>
      <point x="798" y="730" type="line"/>
      <point x="321" y="-7" type="line"/>
      <point x="385" y="-7" type="line"/>
      <point x="864" y="730" type="line"/>
    </contour>
    <contour>
      <point x="96" y="303" type="line"/>
      <point x="88" y="244" type="line"/>
      <point x="377" y="244" type="line"/>
      <point x="385" y="303" type="line"/>
      <point x="290" y="303" type="line"/>
      <point x="347" y="728" type="line"/>
      <point x="300" y="728" type="line"/>
      <point x="130" y="662" type="line"/>
      <point x="140" y="613" type="line"/>
      <point x="260" y="648" type="line"/>
      <point x="214" y="303" type="line"/>
    </contour>
    <contour>
      <point x="732" y="41" type="curve"/>
      <point x="732" y="0" type="line"/>
      <point x="1038" y="0" type="line"/>
      <point x="1065" y="68" type="line"/>
      <point x="843" y="68" type="line"/>
      <point x="936" y="131"/>
      <point x="1095" y="261"/>
      <point x="1095" y="388" type="curve" smooth="yes"/>
      <point x="1095" y="441"/>
      <point x="1064" y="494"/>
      <point x="972" y="494" type="curve" smooth="yes"/>
      <point x="868" y="494"/>
      <point x="798" y="430"/>
      <point x="798" y="430" type="curve"/>
      <point x="823" y="383" type="line"/>
      <point x="823" y="383"/>
      <point x="885" y="436"/>
      <point x="949" y="436" type="curve" smooth="yes"/>
      <point x="992" y="436"/>
      <point x="1016" y="410"/>
      <point x="1016" y="373" type="curve" smooth="yes"/>
      <point x="1016" y="255"/>
      <point x="767" y="67"/>
    </contour>
  </outline>
</glyph>
<glyph name="threequarters" format="2">
  <advance width="1151"/>
  <unicode hex="00BE"/>
  <note>
threequarters
</note>
  <outline>
    <contour>
      <point x="798" y="730" type="line"/>
      <point x="321" y="-7" type="line"/>
      <point x="385" y="-7" type="line"/>
      <point x="864" y="730" type="line"/>
    </contour>
    <contour>
      <point x="79" y="284" type="curve"/>
      <point x="82" y="233" type="line"/>
      <point x="350" y="243"/>
      <point x="413" y="368"/>
      <point x="413" y="440" type="curve" smooth="yes"/>
      <point x="413" y="497"/>
      <point x="371" y="531"/>
      <point x="317" y="538" type="curve"/>
      <point x="363" y="556"/>
      <point x="422" y="595"/>
      <point x="422" y="662" type="curve" smooth="yes"/>
      <point x="422" y="720"/>
      <point x="365" y="738"/>
      <point x="312" y="738" type="curve" smooth="yes"/>
      <point x="256" y="738"/>
      <point x="183" y="712"/>
      <point x="135" y="676" type="curve"/>
      <point x="160" y="630" type="line"/>
      <point x="192" y="655"/>
      <point x="246" y="680"/>
      <point x="286" y="680" type="curve" smooth="yes"/>
      <point x="323" y="680"/>
      <point x="347" y="666"/>
      <point x="347" y="640" type="curve" smooth="yes"/>
      <point x="347" y="573"/>
      <point x="257" y="545"/>
      <point x="202" y="534" type="curve"/>
      <point x="202" y="487" type="line"/>
      <point x="203" y="487"/>
      <point x="219" y="489"/>
      <point x="237" y="489" type="curve" smooth="yes"/>
      <point x="282" y="489"/>
      <point x="336" y="482"/>
      <point x="336" y="428" type="curve" smooth="yes"/>
      <point x="336" y="350"/>
      <point x="242" y="292"/>
    </contour>
    <contour>
      <point x="940" y="110" type="line"/>
      <point x="923" y="0" type="line"/>
      <point x="1003" y="0" type="line"/>
      <point x="1020" y="110" type="line"/>
      <point x="1078" y="110" type="line"/>
      <point x="1105" y="169" type="line"/>
      <point x="1030" y="169" type="line"/>
      <point x="1079" y="483" type="line"/>
      <point x="999" y="483" type="line"/>
      <point x="718" y="150" type="line"/>
      <point x="711" y="110" type="line"/>
    </contour>
    <contour>
      <point x="987" y="387" type="line"/>
      <point x="950" y="169" type="line"/>
      <point x="806" y="169" type="line"/>
    </contour>
  </outline>
</glyph>
<glyph name="questiondown" format="2">
  <advance width="431"/>
  <unicode hex="00BF"/>
  <note>
questiondown
</note>
  <outline>
    <contour>
      <point x="166" y="-234" type="curve" smooth="yes"/>
      <point x="207" y="-234"/>
      <point x="251" y="-222"/>
      <point x="290" y="-197" type="curve"/>
      <point x="273" y="-130" type="line"/>
      <point x="245" y="-151"/>
      <point x="214" y="-162"/>
      <point x="183" y="-162" type="curve" smooth="yes"/>
      <point x="140" y="-162"/>
      <point x="106" y="-140"/>
      <point x="106" y="-84" type="curve" smooth="yes"/>
      <point x="106" y="-24"/>
      <point x="139" y="2"/>
      <point x="188" y="30" type="curve" smooth="yes"/>
      <point x="248" y="64"/>
      <point x="318" y="102"/>
      <point x="318" y="186" type="curve" smooth="yes"/>
      <point x="318" y="232"/>
      <point x="281" y="284"/>
      <point x="204" y="284" type="curve"/>
      <point x="181" y="222" type="line"/>
      <point x="226" y="222"/>
      <point x="240" y="197"/>
      <point x="240" y="177" type="curve" smooth="yes"/>
      <point x="240" y="133"/>
      <point x="196" y="110"/>
      <point x="142" y="81" type="curve" smooth="yes"/>
      <point x="83" y="49"/>
      <point x="16" y="1"/>
      <point x="16" y="-99" type="curve" smooth="yes"/>
      <point x="16" y="-188"/>
      <point x="86" y="-234"/>
    </contour>
    <contour>
      <point x="269" y="371" type="curve" smooth="yes"/>
      <point x="309" y="371"/>
      <point x="345" y="405"/>
      <point x="345" y="446" type="curve" smooth="yes"/>
      <point x="345" y="478"/>
      <point x="321" y="503"/>
      <point x="288" y="503" type="curve" smooth="yes"/>
      <point x="249" y="503"/>
      <point x="211" y="467"/>
      <point x="211" y="427" type="curve" smooth="yes"/>
      <point x="211" y="396"/>
      <point x="236" y="371"/>
    </contour>
  </outline>
</glyph>
<glyph name="germandbls" format="2">
  <advance width="541"/>
  <unicode hex="00DF"/>
  <note>
germandbls
</note>
  <outline>
    <contour>
      <point x="-155" y="-198" type="line"/>
      <point x="-127" y="-216"/>
      <point x="-98" y="-230"/>
      <point x="-43" y="-230" type="curve" smooth="yes"/>
      <point x="47" y="-230"/>
      <point x="106" y="-177"/>
      <point x="122" y="-61" type="curve" smooth="yes"/>
      <point x="197" y="488" type="line" smooth="yes"/>
      <point x="208" y="568"/>
      <point x="243" y="666"/>
      <point x="335" y="666" type="curve" smooth="yes"/>
      <point x="377" y="666"/>
      <point x="400" y="642"/>
      <point x="400" y="603" type="curve" smooth="yes"/>
      <point x="400" y="490"/>
      <point x="243" y="465"/>
      <point x="243" y="349" type="curve" smooth="yes"/>
      <point x="243" y="215"/>
      <point x="406" y="226"/>
      <point x="406" y="130" type="curve" smooth="yes"/>
      <point x="406" y="78"/>
      <point x="368" y="50"/>
      <point x="321" y="50" type="curve" smooth="yes"/>
      <point x="289" y="50"/>
      <point x="253" y="62"/>
      <point x="223" y="89" type="curve"/>
      <point x="180" y="28" type="line"/>
      <point x="225" y="0"/>
      <point x="275" y="-13"/>
      <point x="321" y="-13" type="curve" smooth="yes"/>
      <point x="412" y="-13"/>
      <point x="489" y="40"/>
      <point x="489" y="139" type="curve" smooth="yes"/>
      <point x="489" y="276"/>
      <point x="325" y="263"/>
      <point x="325" y="364" type="curve" smooth="yes"/>
      <point x="325" y="438"/>
      <point x="484" y="465"/>
      <point x="484" y="610" type="curve" smooth="yes"/>
      <point x="484" y="684"/>
      <point x="423" y="733"/>
      <point x="342" y="733" type="curve" smooth="yes"/>
      <point x="210" y="733"/>
      <point x="163" y="650"/>
      <point x="125" y="534" type="curve" smooth="yes"/>
      <point x="111" y="490"/>
      <point x="87" y="490"/>
      <point x="45" y="490" type="curve"/>
      <point x="37" y="427" type="line"/>
      <point x="109" y="427" type="line"/>
      <point x="44" y="-52" type="line" smooth="yes"/>
      <point x="33" y="-135"/>
      <point x="-1" y="-166"/>
      <point x="-45" y="-166" type="curve" smooth="yes"/>
      <point x="-79" y="-166"/>
      <point x="-88" y="-160"/>
      <point x="-115" y="-141" type="curve"/>
    </contour>
  </outline>
</glyph>
<glyph name="ae" format="2">
  <advance width="763"/>
  <unicode hex="00E6"/>
  <note>
ae
</note>
  <anchor x="442" y="490" name="top"/>
  <outline>
    <contour>
      <point x="383" y="165" type="curve"/>
      <point x="351" y="271" type="line"/>
      <point x="331" y="156"/>
      <point x="284" y="51"/>
      <point x="203" y="51" type="curve" smooth="yes"/>
      <point x="143" y="51"/>
      <point x="118" y="116"/>
      <point x="118" y="194" type="curve" smooth="yes"/>
      <point x="118" y="309"/>
      <point x="164" y="441"/>
      <point x="288" y="441" type="curve" smooth="yes"/>
      <point x="329" y="441"/>
      <point x="366" y="425"/>
      <point x="407" y="389" type="curve"/>
      <point x="439" y="427" type="line"/>
      <point x="388" y="496"/>
      <point x="327" y="503"/>
      <point x="286" y="503" type="curve" smooth="yes"/>
      <point x="116" y="503"/>
      <point x="35" y="342"/>
      <point x="35" y="193" type="curve" smooth="yes"/>
      <point x="35" y="81"/>
      <point x="79" y="-13"/>
      <point x="187" y="-13" type="curve" smooth="yes"/>
      <point x="292" y="-13"/>
      <point x="345" y="66"/>
    </contour>
    <contour>
      <point x="548" y="57" type="curve" smooth="yes"/>
      <point x="460" y="57"/>
      <point x="428" y="126"/>
      <point x="428" y="213" type="curve" smooth="yes"/>
      <point x="428" y="320"/>
      <point x="484" y="441"/>
      <point x="591" y="441" type="curve" smooth="yes"/>
      <point x="624" y="441"/>
      <point x="653" y="424"/>
      <point x="653" y="390" type="curve" smooth="yes"/>
      <point x="653" y="301"/>
      <point x="513" y="249"/>
      <point x="416" y="261" type="curve"/>
      <point x="416" y="202" type="line"/>
      <point x="598" y="197"/>
      <point x="737" y="271"/>
      <point x="737" y="397" type="curve" smooth="yes"/>
      <point x="737" y="473"/>
      <point x="670" y="503"/>
      <point x="601" y="503" type="curve" smooth="yes"/>
      <point x="432" y="503"/>
      <point x="345" y="348"/>
      <point x="345" y="207" type="curve" smooth="yes"/>
      <point x="345" y="87"/>
      <point x="402" y="-13"/>
      <point x="543" y="-13" type="curve" smooth="yes"/>
      <point x="602" y="-13"/>
      <point x="668" y="9"/>
      <point x="716" y="43" type="curve"/>
      <point x="687" y="102" type="line"/>
      <point x="646" y="74"/>
      <point x="598" y="57"/>
    </contour>
  </outline>
</glyph>
<glyph name="divide" format="2">
  <advance width="630"/>
  <unicode hex="00F7"/>
  <note>
divide
</note>
  <outline>
    <contour>
      <point x="400" y="409" type="curve" smooth="yes"/>
      <point x="400" y="439"/>
      <point x="377" y="461"/>
      <point x="346" y="461" type="curve" smooth="yes"/>
      <point x="309" y="461"/>
      <point x="276" y="429"/>
      <point x="276" y="391" type="curve" smooth="yes"/>
      <point x="276" y="362"/>
      <point x="299" y="340"/>
      <point x="329" y="340" type="curve" smooth="yes"/>
      <point x="365" y="340"/>
      <point x="400" y="371"/>
    </contour>
    <contour>
      <point x="72" y="276" type="line"/>
      <point x="63" y="210" type="line"/>
      <point x="562" y="210" type="line"/>
      <point x="571" y="276" type="line"/>
    </contour>
    <contour>
      <point x="356" y="96" type="curve" smooth="yes"/>
      <point x="356" y="125"/>
      <point x="333" y="147"/>
      <point x="302" y="147" type="curve" smooth="yes"/>
      <point x="266" y="147"/>
      <point x="232" y="116"/>
      <point x="232" y="78" type="curve" smooth="yes"/>
      <point x="232" y="49"/>
      <point x="255" y="27"/>
      <point x="286" y="27" type="curve" smooth="yes"/>
      <point x="323" y="27"/>
      <point x="356" y="58"/>
    </contour>
  </outline>
</glyph>
<glyph name="thorn" format="2">
  <advance width="514"/>
  <unicode hex="00FE"/>
  <note>
thorn
</note>
  <outline>
    <contour>
      <point x="317" y="503" type="curve" smooth="yes"/>
      <point x="259" y="503"/>
      <point x="214" y="477"/>
      <point x="180" y="432" type="curve"/>
      <point x="225" y="764" type="line"/>
      <point x="137" y="764" type="line"/>
      <point x="137" y="707" type="line"/>
      <point x="13" y="-224" type="line"/>
      <point x="101" y="-224" type="line"/>
      <point x="101" y="-169" type="line"/>
      <point x="125" y="18" type="line"/>
      <point x="145" y="4"/>
      <point x="181" y="-13"/>
      <point x="223" y="-13" type="curve" smooth="yes"/>
      <point x="378" y="-13"/>
      <point x="476" y="143"/>
      <point x="476" y="318" type="curve" smooth="yes"/>
      <point x="476" y="417"/>
      <point x="428" y="503"/>
    </contour>
    <contour>
      <point x="301" y="441" type="curve" smooth="yes"/>
      <point x="369" y="441"/>
      <point x="388" y="382"/>
      <point x="388" y="322" type="curve" smooth="yes"/>
      <point x="388" y="179"/>
      <point x="334" y="49"/>
      <point x="226" y="49" type="curve" smooth="yes"/>
      <point x="194" y="49"/>
      <point x="154" y="59"/>
      <point x="134" y="83" type="curve"/>
      <point x="137" y="109"/>
      <point x="140" y="142"/>
      <point x="145" y="178" type="curve" smooth="yes"/>
      <point x="157" y="265"/>
      <point x="189" y="441"/>
    </contour>
  </outline>
</glyph>
<glyph name="lcaron" format="2">
  <advance width="281"/>
  <unicode hex="013E"/>
  <outline>
    <contour>
      <point x="223" y="764" type="line"/>
      <point x="135" y="764" type="line"/>
      <point x="135" y="707" type="line"/>
      <point x="39" y="0" type="line"/>
      <point x="128" y="0" type="line"/>
      <point x="128" y="58" type="line"/>
    </contour>
    <contour>
      <point x="278" y="764" type="line"/>
      <point x="246" y="612" type="line"/>
      <point x="319" y="612" type="line"/>
      <point x="390" y="764" type="line"/>
    </contour>
  </outline>
</glyph>
<glyph name="florin" format="2">
  <advance width="377"/>
  <unicode hex="0192"/>
  <note>
florin
</note>
  <outline>
    <contour>
      <point x="375" y="697" type="curve" smooth="yes"/>
      <point x="333" y="697"/>
      <point x="291" y="683"/>
      <point x="260" y="656" type="curve" smooth="yes"/>
      <point x="202" y="605"/>
      <point x="194" y="528"/>
      <point x="168" y="483" type="curve" smooth="yes"/>
      <point x="145" y="443"/>
      <point x="130" y="449"/>
      <point x="71" y="446" type="curve"/>
      <point x="64" y="393" type="line"/>
      <point x="142" y="393" type="line"/>
      <point x="21" y="-63" type="line" smooth="yes"/>
      <point x="0" y="-141"/>
      <point x="-33" y="-157"/>
      <point x="-85" y="-157" type="curve"/>
      <point x="-111" y="-217" type="line"/>
      <point x="-95" y="-220"/>
      <point x="-80" y="-222"/>
      <point x="-66" y="-222" type="curve" smooth="yes"/>
      <point x="26" y="-222"/>
      <point x="88" y="-153"/>
      <point x="119" y="-31" type="curve" smooth="yes"/>
      <point x="228" y="393" type="line"/>
      <point x="361" y="393" type="line"/>
      <point x="388" y="456" type="line"/>
      <point x="246" y="456" type="line"/>
      <point x="274" y="547"/>
      <point x="302" y="633"/>
      <point x="362" y="633" type="curve" smooth="yes"/>
      <point x="383" y="633"/>
      <point x="405" y="623"/>
      <point x="432" y="600" type="curve"/>
      <point x="462" y="670" type="line"/>
      <point x="437" y="688"/>
      <point x="407" y="697"/>
    </contour>
  </outline>
</glyph>
<glyph name="jdotless" format="2">
  <advance width="229"/>
  <unicode hex="0237"/>
  <anchor x="145" y="490" name="top"/>
  <outline>
    <contour>
      <point x="189" y="490" type="line"/>
      <point x="102" y="490" type="line"/>
      <point x="102" y="433" type="line"/>
      <point x="44" y="13" type="line" smooth="yes"/>
      <point x="34" y="-59"/>
      <point x="17" y="-150"/>
      <point x="-61" y="-188" type="curve"/>
      <point x="-53" y="-228" type="line"/>
      <point x="73" y="-211"/>
      <point x="111" y="-77"/>
      <point x="125" y="25" type="curve" smooth="yes"/>
    </contour>
  </outline>
</glyph>
<glyph name="schwa" format="2">
  <advance width="464"/>
  <unicode hex="0259"/>
  <outline>
    <contour>
      <point x="164" y="-13" type="curve" smooth="yes"/>
      <point x="327" y="-13"/>
      <point x="427" y="148"/>
      <point x="427" y="298" type="curve" smooth="yes"/>
      <point x="427" y="418"/>
      <point x="352" y="503"/>
      <point x="230" y="503" type="curve" smooth="yes"/>
      <point x="171" y="503"/>
      <point x="105" y="481"/>
      <point x="57" y="447" type="curve"/>
      <point x="86" y="388" type="line"/>
      <point x="127" y="416"/>
      <point x="175" y="433"/>
      <point x="225" y="433" type="curve" smooth="yes"/>
      <point x="297" y="433"/>
      <point x="342" y="378"/>
      <point x="342" y="288" type="curve"/>
      <point x="186" y="290"/>
      <point x="36" y="225"/>
      <point x="36" y="93" type="curve" smooth="yes"/>
      <point x="36" y="17"/>
      <point x="95" y="-13"/>
    </contour>
    <contour>
      <point x="120" y="100" type="curve" smooth="yes"/>
      <point x="120" y="182"/>
      <point x="233" y="230"/>
      <point x="337" y="230" type="curve"/>
      <point x="330" y="155"/>
      <point x="260" y="49"/>
      <point x="177" y="49" type="curve" smooth="yes"/>
      <point x="144" y="49"/>
      <point x="120" y="66"/>
    </contour>
  </outline>
</glyph>
<glyph name="circumflex" format="2">
  <advance width="291"/>
  <unicode hex="02C6"/>
  <note>
circumflex
</note>
  <anchor x="179" y="490" name="_top"/>
  <outline>
    <contour>
      <point x="202" y="661" type="line"/>
      <point x="269" y="579" type="line"/>
      <point x="338" y="579" type="line"/>
      <point x="254" y="734" type="line"/>
      <point x="171" y="734" type="line"/>
      <point x="47" y="580" type="line"/>
      <point x="114" y="580" type="line"/>
    </contour>
  </outline>
</glyph>
<glyph name="caron" format="2">
  <advance width="291"/>
  <unicode hex="02C7"/>
  <note>
caron
</note>
  <anchor x="179" y="490" name="_top"/>
  <outline>
    <contour>
      <point x="205" y="652" type="line"/>
      <point x="138" y="734" type="line"/>
      <point x="69" y="734" type="line"/>
      <point x="153" y="579" type="line"/>
      <point x="236" y="579" type="line"/>
      <point x="360" y="733" type="line"/>
      <point x="293" y="733" type="line"/>
    </contour>
  </outline>
</glyph>
<glyph name="dotaccent" format="2">
  <advance width="273"/>
  <unicode hex="02D9"/>
  <note>
dotaccent
</note>
  <anchor x="173" y="490" name="_top"/>
  <outline>
    <contour>
      <point x="251" y="665" type="curve" smooth="yes"/>
      <point x="251" y="693"/>
      <point x="231" y="714"/>
      <point x="202" y="714" type="curve" smooth="yes"/>
      <point x="169" y="714"/>
      <point x="138" y="684"/>
      <point x="138" y="649" type="curve" smooth="yes"/>
      <point x="138" y="622"/>
      <point x="158" y="600"/>
      <point x="186" y="600" type="curve" smooth="yes"/>
      <point x="220" y="600"/>
      <point x="251" y="630"/>
    </contour>
  </outline>
</glyph>
<glyph name="slashshortcomb" format="2">
  <unicode hex="0337"/>
  <anchor x="138" y="353" name="_center"/>
  <outline>
    <contour>
      <point x="15" y="265" type="line"/>
      <point x="255" y="370" type="line"/>
      <point x="264" y="439" type="line"/>
      <point x="24" y="334" type="line"/>
    </contour>
  </outline>
</glyph>
<glyph name="endash" format="2">
  <advance width="487"/>
  <unicode hex="2013"/>
  <note>
endash
</note>
  <outline>
    <contour>
      <point x="-2" y="228" type="line"/>
      <point x="484" y="228" type="line"/>
      <point x="493" y="285" type="line"/>
      <point x="7" y="285" type="line"/>
    </contour>
  </outline>
</glyph>
<glyph name="emdash" format="2">
  <advance width="837"/>
  <unicode hex="2014"/>
  <note>
emdash
</note>
  <outline>
    <contour>
      <point x="-2" y="228" type="line"/>
      <point x="834" y="228" type="line"/>
      <point x="843" y="285" type="line"/>
      <point x="7" y="285" type="line"/>
    </contour>
  </outline>
</glyph>
<glyph name="dagger" format="2">
  <advance width="490"/>
  <unicode hex="2020"/>
  <note>
dagger
</note>
  <outline>
    <contour>
      <point x="285" y="730" type="line"/>
      <point x="232" y="657" type="line"/>
      <point x="238" y="498" type="line"/>
      <point x="110" y="524" type="line"/>
      <point x="46" y="485" type="line"/>
      <point x="99" y="445" type="line"/>
      <point x="234" y="468" type="line"/>
      <point x="184" y="309" type="line"/>
      <point x="149" y="-133" type="line"/>
      <point x="185" y="-133" type="line"/>
      <point x="271" y="309" type="line"/>
      <point x="267" y="468" type="line"/>
      <point x="398" y="445" type="line"/>
      <point x="459" y="481" type="line"/>
      <point x="409" y="524" type="line"/>
      <point x="271" y="498" type="line"/>
      <point x="321" y="657" type="line"/>
    </contour>
  </outline>
</glyph>
<glyph name="daggerdbl" format="2">
  <advance width="532"/>
  <unicode hex="2021"/>
  <note>
daggerdbl
</note>
  <outline>
    <contour>
      <point x="324" y="730" type="line"/>
      <point x="272" y="657" type="line"/>
      <point x="278" y="498" type="line"/>
      <point x="149" y="524" type="line"/>
      <point x="86" y="485" type="line"/>
      <point x="138" y="445" type="line"/>
      <point x="274" y="468" type="line"/>
      <point x="224" y="309" type="line"/>
      <point x="226" y="129" type="line"/>
      <point x="97" y="150" type="line"/>
      <point x="34" y="116" type="line"/>
      <point x="86" y="74" type="line"/>
      <point x="222" y="99" type="line"/>
      <point x="171" y="-60" type="line"/>
      <point x="210" y="-130" type="line"/>
      <point x="260" y="-60" type="line"/>
      <point x="260" y="99" type="line"/>
      <point x="382" y="74" type="line"/>
      <point x="447" y="112" type="line"/>
      <point x="393" y="150" type="line"/>
      <point x="263" y="129" type="line"/>
      <point x="312" y="309" type="line"/>
      <point x="307" y="468" type="line"/>
      <point x="437" y="445" type="line"/>
      <point x="498" y="481" type="line"/>
      <point x="448" y="524" type="line"/>
      <point x="311" y="498" type="line"/>
      <point x="361" y="657" type="line"/>
    </contour>
  </outline>
</glyph>
<glyph name="bullet" format="2">
  <advance width="405"/>
  <unicode hex="2022"/>
  <note>
bullet
</note>
  <outline>
    <contour>
      <point x="349" y="376" type="curve" smooth="yes"/>
      <point x="349" y="439"/>
      <point x="303" y="487"/>
      <point x="235" y="487" type="curve" smooth="yes"/>
      <point x="155" y="487"/>
      <point x="86" y="416"/>
      <point x="86" y="339" type="curve" smooth="yes"/>
      <point x="86" y="275"/>
      <point x="132" y="227"/>
      <point x="200" y="227" type="curve" smooth="yes"/>
      <point x="280" y="227"/>
      <point x="349" y="296"/>
    </contour>
  </outline>
</glyph>
<glyph name="minute" format="2">
  <advance width="255"/>
  <unicode hex="2032"/>
  <outline>
    <contour>
      <point x="154" y="703" type="line"/>
      <point x="94" y="531" type="line"/>
      <point x="172" y="531" type="line"/>
      <point x="276" y="703" type="line"/>
    </contour>
  </outline>
</glyph>
<glyph name="guilsinglright" format="2">
  <advance width="310"/>
  <unicode hex="203A"/>
  <note>
guilsinglright
</note>
  <outline>
    <contour>
      <point x="54" y="176" type="line"/>
      <point x="113" y="167" type="line"/>
      <point x="262" y="327" type="line"/>
      <point x="117" y="488" type="line"/>
      <point x="56" y="477" type="line"/>
      <point x="172" y="327" type="line"/>
    </contour>
  </outline>
</glyph>
<glyph name="commercialMinusSign" format="2">
  <advance width="468"/>
  <unicode hex="2052"/>
  <outline>
    <contour>
      <point x="401" y="727" type="line"/>
      <point x="29" y="-9" type="line"/>
      <point x="98" y="-9" type="line"/>
      <point x="468" y="727" type="line"/>
    </contour>
    <contour>
      <point x="260" y="680" type="curve" smooth="yes"/>
      <point x="260" y="712"/>
      <point x="236" y="737"/>
      <point x="203" y="737" type="curve" smooth="yes"/>
      <point x="163" y="737"/>
      <point x="126" y="703"/>
      <point x="126" y="662" type="curve" smooth="yes"/>
      <point x="126" y="630"/>
      <point x="151" y="605"/>
      <point x="184" y="605" type="curve" smooth="yes"/>
      <point x="223" y="605"/>
      <point x="260" y="640"/>
    </contour>
    <contour>
      <point x="377" y="63" type="curve" smooth="yes"/>
      <point x="377" y="95"/>
      <point x="352" y="120"/>
      <point x="319" y="120" type="curve" smooth="yes"/>
      <point x="279" y="120"/>
      <point x="243" y="86"/>
      <point x="243" y="45" type="curve" smooth="yes"/>
      <point x="243" y="13"/>
      <point x="267" y="-12"/>
      <point x="300" y="-12" type="curve" smooth="yes"/>
      <point x="339" y="-12"/>
      <point x="377" y="23"/>
    </contour>
  </outline>
</glyph>
<glyph name="zerosuperior" format="2">
  <advance width="455"/>
  <unicode hex="2070"/>
  <outline>
    <contour>
      <point x="334" y="928" type="curve" smooth="yes"/>
      <point x="174" y="928"/>
      <point x="83" y="777"/>
      <point x="83" y="605" type="curve" smooth="yes"/>
      <point x="83" y="501"/>
      <point x="128" y="423"/>
      <point x="242" y="423" type="curve" smooth="yes"/>
      <point x="401" y="423"/>
      <point x="493" y="575"/>
      <point x="493" y="747" type="curve" smooth="yes"/>
      <point x="493" y="851"/>
      <point x="449" y="928"/>
    </contour>
    <contour>
      <point x="318" y="865" type="curve" smooth="yes"/>
      <point x="393" y="865"/>
      <point x="414" y="812"/>
      <point x="414" y="749" type="curve" smooth="yes"/>
      <point x="414" y="614"/>
      <point x="366" y="486"/>
      <point x="258" y="486" type="curve" smooth="yes"/>
      <point x="183" y="486"/>
      <point x="162" y="540"/>
      <point x="162" y="605" type="curve" smooth="yes"/>
      <point x="162" y="738"/>
      <point x="210" y="865"/>
    </contour>
  </outline>
</glyph>
<glyph name="sixsuperior" format="2">
  <advance width="455"/>
  <unicode hex="2076"/>
  <outline>
    <contour>
      <point x="438" y="949" type="line"/>
      <point x="261" y="893"/>
      <point x="102" y="740"/>
      <point x="102" y="566" type="curve" smooth="yes"/>
      <point x="102" y="470"/>
      <point x="166" y="425"/>
      <point x="237" y="425" type="curve" smooth="yes"/>
      <point x="359" y="425"/>
      <point x="438" y="533"/>
      <point x="438" y="623" type="curve" smooth="yes"/>
      <point x="438" y="696"/>
      <point x="384" y="741"/>
      <point x="315" y="741" type="curve" smooth="yes"/>
      <point x="277" y="741"/>
      <point x="234" y="728"/>
      <point x="194" y="699" type="curve"/>
      <point x="176" y="637" type="line"/>
      <point x="214" y="663"/>
      <point x="253" y="677"/>
      <point x="285" y="677" type="curve" smooth="yes"/>
      <point x="326" y="677"/>
      <point x="356" y="654"/>
      <point x="356" y="606" type="curve" smooth="yes"/>
      <point x="356" y="544"/>
      <point x="317" y="482"/>
      <point x="252" y="482" type="curve" smooth="yes"/>
      <point x="205" y="482"/>
      <point x="182" y="514"/>
      <point x="182" y="569" type="curve" smooth="yes"/>
      <point x="182" y="718"/>
      <point x="285" y="835"/>
      <point x="449" y="896" type="curve"/>
    </contour>
  </outline>
</glyph>
<glyph name="sevensuperior" format="2">
  <advance width="455"/>
  <unicode hex="2077"/>
  <outline>
    <contour>
      <point x="194" y="919" type="line"/>
      <point x="163" y="849" type="line"/>
      <point x="374" y="849" type="line"/>
      <point x="109" y="432" type="line"/>
      <point x="201" y="432" type="line"/>
      <point x="473" y="889" type="line"/>
      <point x="478" y="919" type="line"/>
    </contour>
  </outline>
</glyph>
<glyph name="eightsuperior" format="2">
  <advance width="455"/>
  <unicode hex="2078"/>
  <outline>
    <contour>
      <point x="464" y="830" type="curve" smooth="yes"/>
      <point x="464" y="896"/>
      <point x="407" y="928"/>
      <point x="341" y="928" type="curve" smooth="yes"/>
      <point x="257" y="928"/>
      <point x="158" y="875"/>
      <point x="158" y="774" type="curve" smooth="yes"/>
      <point x="158" y="645"/>
      <point x="361" y="653"/>
      <point x="361" y="568" type="curve" smooth="yes"/>
      <point x="361" y="520"/>
      <point x="312" y="483"/>
      <point x="255" y="483" type="curve" smooth="yes"/>
      <point x="213" y="483"/>
      <point x="174" y="504"/>
      <point x="174" y="545" type="curve" smooth="yes"/>
      <point x="174" y="596"/>
      <point x="210" y="639"/>
      <point x="273" y="665" type="curve"/>
      <point x="253" y="707" type="line"/>
      <point x="167" y="673"/>
      <point x="105" y="611"/>
      <point x="105" y="533" type="curve" smooth="yes"/>
      <point x="105" y="461"/>
      <point x="173" y="425"/>
      <point x="248" y="425" type="curve" smooth="yes"/>
      <point x="340" y="425"/>
      <point x="443" y="479"/>
      <point x="443" y="590" type="curve" smooth="yes"/>
      <point x="443" y="726"/>
      <point x="238" y="708"/>
      <point x="238" y="794" type="curve" smooth="yes"/>
      <point x="238" y="837"/>
      <point x="279" y="872"/>
      <point x="331" y="872" type="curve" smooth="yes"/>
      <point x="368" y="872"/>
      <point x="401" y="854"/>
      <point x="401" y="818" type="curve" smooth="yes"/>
      <point x="401" y="775"/>
      <point x="365" y="731"/>
      <point x="312" y="716" type="curve"/>
      <point x="338" y="675" type="line"/>
      <point x="437" y="711"/>
      <point x="464" y="783"/>
    </contour>
  </outline>
</glyph>
<glyph name="franc" format="2">
  <advance width="529"/>
  <unicode hex="20A3"/>
  <outline>
    <contour>
      <point x="145" y="697" type="line"/>
      <point x="150" y="631" type="line"/>
      <point x="61" y="0" type="line"/>
      <point x="154" y="0" type="line"/>
      <point x="200" y="324" type="line"/>
      <point x="435" y="324" type="line"/>
      <point x="444" y="392" type="line"/>
      <point x="209" y="392" type="line"/>
      <point x="242" y="628" type="line"/>
      <point x="538" y="628" type="line"/>
      <point x="548" y="697" type="line"/>
    </contour>
    <contour>
      <point x="28" y="209" type="line"/>
      <point x="10" y="147" type="line"/>
      <point x="334" y="147" type="line"/>
      <point x="352" y="209" type="line"/>
    </contour>
  </outline>
</glyph>
<glyph name="naira" format="2">
  <advance width="715"/>
  <unicode hex="20A6"/>
  <outline>
    <contour>
      <point x="288" y="697" type="line"/>
      <point x="164" y="697" type="line"/>
      <point x="169" y="631" type="line"/>
      <point x="80" y="0" type="line"/>
      <point x="156" y="0" type="line"/>
      <point x="230" y="522" type="line" smooth="yes"/>
      <point x="233" y="543"/>
      <point x="235" y="566"/>
      <point x="236" y="587" type="curve"/>
      <point x="246" y="570"/>
      <point x="257" y="549"/>
      <point x="265" y="532" type="curve" smooth="yes"/>
      <point x="521" y="-5" type="line"/>
      <point x="580" y="-5" type="line"/>
      <point x="678" y="697" type="line"/>
      <point x="602" y="697" type="line"/>
      <point x="539" y="248" type="line" smooth="yes"/>
      <point x="536" y="226"/>
      <point x="535" y="202"/>
      <point x="533" y="180" type="curve"/>
      <point x="522" y="199"/>
      <point x="511" y="220"/>
      <point x="502" y="239" type="curve" smooth="yes"/>
    </contour>
    <contour>
      <point x="71" y="482" type="line"/>
      <point x="52" y="420" type="line"/>
      <point x="702" y="420" type="line"/>
      <point x="721" y="482" type="line"/>
    </contour>
    <contour>
      <point x="52" y="346" type="line"/>
      <point x="33" y="284" type="line"/>
      <point x="683" y="284" type="line"/>
      <point x="702" y="346" type="line"/>
    </contour>
  </outline>
</glyph>
<glyph name="dong" format="2">
  <advance width="619"/>
  <unicode hex="20AB"/>
  <anchor x="410" y="645" name="center"/>
  <anchor x="351" y="521" name="topright"/>
  <outline>
    <contour>
      <point x="32" y="-82" type="line"/>
      <point x="22" y="-144" type="line"/>
      <point x="454" y="-144" type="line"/>
      <point x="464" y="-82" type="line"/>
    </contour>
    <component base="dcroat" xOffset="17"/>
  </outline>
</glyph>
<glyph name="peso" format="2">
  <advance width="645"/>
  <unicode hex="20B1"/>
  <outline>
    <contour>
      <point x="150" y="697" type="line"/>
      <point x="156" y="631" type="line"/>
      <point x="67" y="0" type="line"/>
      <point x="160" y="0" type="line"/>
      <point x="196" y="257" type="line"/>
      <point x="307" y="257" type="line" smooth="yes"/>
      <point x="467" y="257"/>
      <point x="585" y="357"/>
      <point x="585" y="521" type="curve" smooth="yes"/>
      <point x="585" y="646"/>
      <point x="498" y="697"/>
      <point x="368" y="697" type="curve" smooth="yes"/>
    </contour>
    <contour>
      <point x="248" y="628" type="line"/>
      <point x="358" y="628" type="line" smooth="yes"/>
      <point x="443" y="628"/>
      <point x="487" y="583"/>
      <point x="487" y="508" type="curve" smooth="yes"/>
      <point x="487" y="403"/>
      <point x="418" y="325"/>
      <point x="315" y="325" type="curve" smooth="yes"/>
      <point x="206" y="325" type="line"/>
    </contour>
    <contour>
      <point x="83" y="570" type="line"/>
      <point x="64" y="508" type="line"/>
      <point x="654" y="508" type="line"/>
      <point x="673" y="570" type="line"/>
    </contour>
    <contour>
      <point x="66" y="449" type="line"/>
      <point x="47" y="387" type="line"/>
      <point x="637" y="387" type="line"/>
      <point x="656" y="449" type="line"/>
    </contour>
  </outline>
</glyph>
<glyph name="guarani" format="2">
  <advance width="663"/>
  <unicode hex="20B2"/>
  <outline>
    <contour>
      <point x="418" y="697" type="curve" smooth="yes"/>
      <point x="205" y="697"/>
      <point x="60" y="497"/>
      <point x="60" y="269" type="curve" smooth="yes"/>
      <point x="60" y="131"/>
      <point x="119" y="-12"/>
      <point x="283" y="-12" type="curve" smooth="yes"/>
      <point x="369" y="-12"/>
      <point x="427" y="13"/>
      <point x="495" y="76" type="curve"/>
      <point x="516" y="0" type="line"/>
      <point x="566" y="0" type="line"/>
      <point x="571" y="55"/>
      <point x="573" y="111"/>
      <point x="581" y="166" type="curve" smooth="yes"/>
      <point x="607" y="355" type="line"/>
      <point x="346" y="355" type="line"/>
      <point x="325" y="287" type="line"/>
      <point x="504" y="287" type="line"/>
      <point x="497" y="241" type="line" smooth="yes"/>
      <point x="483" y="138"/>
      <point x="414" y="62"/>
      <point x="309" y="62" type="curve" smooth="yes"/>
      <point x="190" y="62"/>
      <point x="159" y="173"/>
      <point x="159" y="272" type="curve" smooth="yes"/>
      <point x="159" y="452"/>
      <point x="246" y="625"/>
      <point x="398" y="625" type="curve" smooth="yes"/>
      <point x="481" y="625"/>
      <point x="518" y="602"/>
      <point x="574" y="553" type="curve"/>
      <point x="636" y="614" type="line"/>
      <point x="578" y="670"/>
      <point x="495" y="697"/>
    </contour>
    <contour>
      <point x="255" y="-102" type="line"/>
      <point x="316" y="-112" type="line"/>
      <point x="443" y="794" type="line"/>
      <point x="382" y="804" type="line"/>
    </contour>
  </outline>
</glyph>
<glyph name="rupeeIndian" format="2">
  <advance width="605"/>
  <unicode hex="20B9"/>
  <outline>
    <contour>
      <point x="257" y="697" type="curve" smooth="yes"/>
      <point x="138" y="697" type="line"/>
      <point x="129" y="635" type="line"/>
      <point x="248" y="635" type="line" smooth="yes"/>
      <point x="331" y="635"/>
      <point x="370" y="602"/>
      <point x="370" y="531" type="curve" smooth="yes"/>
      <point x="370" y="429"/>
      <point x="319" y="365"/>
      <point x="209" y="365" type="curve" smooth="yes"/>
      <point x="91" y="365" type="line"/>
      <point x="82" y="297" type="line"/>
      <point x="202" y="297" type="line" smooth="yes"/>
      <point x="364" y="297"/>
      <point x="467" y="380"/>
      <point x="467" y="546" type="curve" smooth="yes"/>
      <point x="467" y="665"/>
      <point x="386" y="697"/>
    </contour>
    <contour>
      <point x="168" y="344" type="line"/>
      <point x="82" y="297" type="line"/>
      <point x="283" y="0" type="line"/>
      <point x="403" y="0" type="line"/>
    </contour>
    <contour>
      <point x="138" y="697" type="line"/>
      <point x="129" y="635" type="line"/>
      <point x="593" y="635" type="line"/>
      <point x="612" y="697" type="line"/>
    </contour>
    <contour>
      <point x="115" y="531" type="line"/>
      <point x="106" y="469" type="line"/>
      <point x="543" y="469" type="line"/>
      <point x="562" y="531" type="line"/>
    </contour>
  </outline>
</glyph>
<glyph name="ruble" format="2">
  <advance width="605"/>
  <unicode hex="20BD"/>
  <outline>
    <contour>
      <point x="150" y="697" type="line"/>
      <point x="156" y="631" type="line"/>
      <point x="67" y="0" type="line"/>
      <point x="160" y="0" type="line"/>
      <point x="199" y="277" type="line"/>
      <point x="310" y="277" type="line" smooth="yes"/>
      <point x="475" y="277"/>
      <point x="586" y="369"/>
      <point x="586" y="532" type="curve" smooth="yes"/>
      <point x="586" y="654"/>
      <point x="497" y="697"/>
      <point x="368" y="697" type="curve" smooth="yes"/>
    </contour>
    <contour>
      <point x="248" y="628" type="line"/>
      <point x="358" y="628" type="line" smooth="yes"/>
      <point x="443" y="628"/>
      <point x="488" y="591"/>
      <point x="488" y="518" type="curve" smooth="yes"/>
      <point x="488" y="412"/>
      <point x="423" y="344"/>
      <point x="317" y="344" type="curve" smooth="yes"/>
      <point x="208" y="344" type="line"/>
    </contour>
    <contour>
      <point x="31" y="186" type="line"/>
      <point x="12" y="124" type="line"/>
      <point x="336" y="124" type="line"/>
      <point x="355" y="186" type="line"/>
    </contour>
    <contour>
      <point x="53" y="344" type="line"/>
      <point x="34" y="277" type="line"/>
      <point x="178" y="277" type="line"/>
      <point x="197" y="344" type="line"/>
    </contour>
  </outline>
</glyph>
<glyph name="literSign" format="2">
  <advance width="429"/>
  <unicode hex="2113"/>
  <outline>
    <contour>
      <point x="329" y="770" type="curve" smooth="yes"/>
      <point x="254" y="770"/>
      <point x="170" y="721"/>
      <point x="152" y="594" type="curve" smooth="yes"/>
      <point x="89" y="149"/>
      <point x="82" y="105"/>
      <point x="82" y="82" type="curve" smooth="yes"/>
      <point x="82" y="23"/>
      <point x="109" y="-11"/>
      <point x="181" y="-11" type="curve" smooth="yes"/>
      <point x="219" y="-11"/>
      <point x="248" y="-3"/>
      <point x="283" y="7" type="curve"/>
      <point x="277" y="63" type="line"/>
      <point x="256" y="58"/>
      <point x="233" y="53"/>
      <point x="212" y="53" type="curve" smooth="yes"/>
      <point x="177" y="53"/>
      <point x="166" y="68"/>
      <point x="166" y="95" type="curve" smooth="yes"/>
      <point x="166" y="101"/>
      <point x="163" y="77"/>
      <point x="240" y="628" type="curve" smooth="yes"/>
      <point x="248" y="688"/>
      <point x="282" y="708"/>
      <point x="314" y="708" type="curve" smooth="yes"/>
      <point x="344" y="708"/>
      <point x="363" y="685"/>
      <point x="363" y="646" type="curve" smooth="yes"/>
      <point x="363" y="449"/>
      <point x="222" y="320"/>
      <point x="10" y="247" type="curve"/>
      <point x="21" y="194" type="line"/>
      <point x="253" y="253"/>
      <point x="445" y="431"/>
      <point x="445" y="648" type="curve" smooth="yes"/>
      <point x="445" y="734"/>
      <point x="390" y="770"/>
    </contour>
  </outline>
</glyph>
<glyph name="trademark" format="2">
  <advance width="580"/>
  <unicode hex="2122"/>
  <note>
trademark
</note>
  <outline>
    <contour>
      <point x="236" y="687" type="line"/>
      <point x="308" y="687" type="line"/>
      <point x="313" y="724" type="line"/>
      <point x="120" y="724" type="line"/>
      <point x="115" y="687" type="line"/>
      <point x="186" y="687" type="line"/>
      <point x="160" y="500" type="line"/>
      <point x="210" y="500" type="line"/>
    </contour>
    <contour>
      <point x="495" y="499" type="line"/>
      <point x="544" y="499" type="line"/>
      <point x="575" y="724" type="line"/>
      <point x="511" y="724" type="line"/>
      <point x="436" y="579" type="line"/>
      <point x="401" y="724" type="line"/>
      <point x="335" y="724" type="line"/>
      <point x="304" y="499" type="line"/>
      <point x="346" y="499" type="line"/>
      <point x="367" y="654" type="line"/>
      <point x="406" y="499" type="line"/>
      <point x="436" y="499" type="line"/>
      <point x="516" y="650" type="line"/>
    </contour>
  </outline>
</glyph>
<glyph name="estimated" format="2">
  <advance width="738"/>
  <unicode hex="212E"/>
  <outline>
    <contour>
      <point x="392" y="696" type="curve" smooth="yes"/>
      <point x="191" y="696"/>
      <point x="69" y="561"/>
      <point x="69" y="344" type="curve" smooth="yes"/>
      <point x="69" y="127"/>
      <point x="190" y="-10"/>
      <point x="397" y="-10" type="curve" smooth="yes"/>
      <point x="504" y="-10"/>
      <point x="589" y="31"/>
      <point x="644" y="105" type="curve"/>
      <point x="606" y="135" type="line"/>
      <point x="560" y="69"/>
      <point x="488" y="35"/>
      <point x="399" y="35" type="curve" smooth="yes"/>
      <point x="306" y="35"/>
      <point x="229" y="72"/>
      <point x="183" y="141" type="curve"/>
      <point x="183" y="316" type="line"/>
      <point x="698" y="316" type="line"/>
      <point x="702" y="566"/>
      <point x="589" y="696"/>
    </contour>
    <contour>
      <point x="183" y="364" type="line"/>
      <point x="183" y="549" type="line"/>
      <point x="227" y="615"/>
      <point x="300" y="651"/>
      <point x="390" y="651" type="curve" smooth="yes"/>
      <point x="477" y="651"/>
      <point x="548" y="617"/>
      <point x="592" y="554" type="curve"/>
      <point x="592" y="364" type="line"/>
    </contour>
  </outline>
</glyph>
<glyph name="increment" format="2">
  <advance width="631"/>
  <unicode hex="2206"/>
  <note>
uni2206
</note>
  <outline>
    <contour>
      <point x="-15" y="53" type="line"/>
      <point x="-22" y="0" type="line"/>
      <point x="550" y="0" type="line"/>
      <point x="557" y="53" type="line"/>
      <point x="398" y="723" type="line"/>
      <point x="323" y="723" type="line"/>
    </contour>
    <contour>
      <point x="449" y="66" type="curve"/>
      <point x="64" y="66" type="line"/>
      <point x="279" y="502" type="line" smooth="yes"/>
      <point x="296" y="536"/>
      <point x="313" y="571"/>
      <point x="330" y="605" type="curve"/>
      <point x="336" y="576"/>
      <point x="340" y="532"/>
      <point x="348" y="496" type="curve" smooth="yes"/>
      <point x="378" y="363"/>
      <point x="417" y="202"/>
    </contour>
  </outline>
</glyph>
<glyph name="product" format="2">
  <advance width="833"/>
  <unicode hex="220F"/>
  <note>
product
</note>
  <outline>
    <contour>
      <point x="647" y="655" type="line"/>
      <point x="523" y="-228" type="line"/>
      <point x="619" y="-228" type="line"/>
      <point x="743" y="655" type="line"/>
      <point x="860" y="655" type="line"/>
      <point x="870" y="724" type="line"/>
      <point x="98" y="724" type="line"/>
      <point x="88" y="655" type="line"/>
      <point x="204" y="655" type="line"/>
      <point x="80" y="-228" type="line"/>
      <point x="176" y="-228" type="line"/>
      <point x="300" y="655" type="line"/>
    </contour>
  </outline>
</glyph>
<glyph name="minus" format="2">
  <advance width="636"/>
  <unicode hex="2212"/>
  <note>
minus
</note>
  <outline>
    <contour>
      <point x="76" y="277" type="line"/>
      <point x="68" y="216" type="line"/>
      <point x="560" y="216" type="line"/>
      <point x="568" y="277" type="line"/>
    </contour>
  </outline>
</glyph>
<glyph name="radical" format="2">
  <advance width="605"/>
  <unicode hex="221A"/>
  <note>
radical
</note>
  <outline>
    <contour>
      <point x="39" y="213" type="line"/>
      <point x="125" y="-230" type="line"/>
      <point x="208" y="-230" type="line"/>
      <point x="730" y="948" type="line"/>
      <point x="658" y="948" type="line"/>
      <point x="189" y="-112" type="line"/>
      <point x="109" y="303" type="line"/>
      <point x="-62" y="245" type="line"/>
      <point x="-51" y="183" type="line"/>
    </contour>
  </outline>
</glyph>
<glyph name="infinity" format="2">
  <advance width="812"/>
  <unicode hex="221E"/>
  <note>
infinity
</note>
  <outline>
    <contour>
      <point x="255" y="414" type="curve" smooth="yes"/>
      <point x="151" y="414"/>
      <point x="76" y="330"/>
      <point x="76" y="219" type="curve" smooth="yes"/>
      <point x="76" y="139"/>
      <point x="124" y="82"/>
      <point x="208" y="82" type="curve" smooth="yes"/>
      <point x="285" y="82"/>
      <point x="346" y="139"/>
      <point x="399" y="197" type="curve"/>
      <point x="436" y="139"/>
      <point x="481" y="82"/>
      <point x="558" y="82" type="curve" smooth="yes"/>
      <point x="662" y="82"/>
      <point x="736" y="168"/>
      <point x="736" y="278" type="curve" smooth="yes"/>
      <point x="736" y="358"/>
      <point x="688" y="414"/>
      <point x="603" y="414" type="curve" smooth="yes"/>
      <point x="527" y="414"/>
      <point x="466" y="357"/>
      <point x="413" y="300" type="curve"/>
      <point x="376" y="357"/>
      <point x="331" y="414"/>
    </contour>
    <contour>
      <point x="244" y="333" type="curve" smooth="yes"/>
      <point x="300" y="333"/>
      <point x="336" y="288"/>
      <point x="364" y="248" type="curve"/>
      <point x="324" y="207"/>
      <point x="275" y="164"/>
      <point x="218" y="164" type="curve" smooth="yes"/>
      <point x="172" y="164"/>
      <point x="143" y="190"/>
      <point x="143" y="233" type="curve" smooth="yes"/>
      <point x="143" y="294"/>
      <point x="187" y="333"/>
    </contour>
    <contour>
      <point x="592" y="333" type="curve" smooth="yes"/>
      <point x="639" y="333"/>
      <point x="669" y="306"/>
      <point x="669" y="262" type="curve" smooth="yes"/>
      <point x="669" y="202"/>
      <point x="625" y="164"/>
      <point x="570" y="164" type="curve" smooth="yes"/>
      <point x="513" y="164"/>
      <point x="476" y="207"/>
      <point x="448" y="248" type="curve"/>
      <point x="488" y="288"/>
      <point x="536" y="333"/>
    </contour>
  </outline>
</glyph>
<glyph name="notequal" format="2">
  <advance width="638"/>
  <unicode hex="2260"/>
  <note>
notequal
</note>
  <outline>
    <contour>
      <point x="222" y="-10" type="line"/>
      <point x="286" y="119" type="line"/>
      <point x="547" y="119" type="line"/>
      <point x="556" y="181" type="line"/>
      <point x="317" y="181" type="line"/>
      <point x="383" y="312" type="line"/>
      <point x="574" y="312" type="line"/>
      <point x="583" y="374" type="line"/>
      <point x="414" y="374" type="line"/>
      <point x="480" y="506" type="line"/>
      <point x="416" y="506" type="line"/>
      <point x="350" y="374" type="line"/>
      <point x="90" y="374" type="line"/>
      <point x="81" y="312" type="line"/>
      <point x="319" y="312" type="line"/>
      <point x="253" y="181" type="line"/>
      <point x="63" y="181" type="line"/>
      <point x="54" y="119" type="line"/>
      <point x="221" y="119" type="line"/>
      <point x="157" y="-10" type="line"/>
    </contour>
  </outline>
</glyph>
<glyph name="leftanglebracket-math" format="2">
  <advance width="408"/>
  <unicode hex="27E8"/>
  <outline>
    <contour>
      <point x="57" y="293" type="line"/>
      <point x="255" y="-69" type="line"/>
      <point x="315" y="-61" type="line"/>
      <point x="147" y="293" type="line"/>
      <point x="412" y="645" type="line"/>
      <point x="353" y="657" type="line"/>
    </contour>
  </outline>
</glyph>
<glyph name="fi" format="2">
  <advance width="500"/>
  <unicode hex="FB01"/>
  <note>
fi
</note>
  <outline>
    <contour>
      <point x="-93" y="-164" type="curve"/>
      <point x="-107" y="-222" type="line"/>
      <point x="13" y="-254"/>
      <point x="104" y="-197"/>
      <point x="122" y="-62" type="curve" smooth="yes"/>
      <point x="189" y="427" type="line"/>
      <point x="372" y="427" type="line"/>
      <point x="315" y="0" type="line"/>
      <point x="404" y="0" type="line"/>
      <point x="404" y="62" type="line"/>
      <point x="460" y="490" type="line"/>
      <point x="199" y="490" type="line"/>
      <point x="215" y="643"/>
      <point x="256" y="707"/>
      <point x="336" y="707" type="curve" smooth="yes"/>
      <point x="379" y="707"/>
      <point x="409" y="682"/>
      <point x="414" y="635" type="curve"/>
      <point x="491" y="658" type="line"/>
      <point x="476" y="733"/>
      <point x="416" y="771"/>
      <point x="339" y="771" type="curve" smooth="yes"/>
      <point x="195" y="771"/>
      <point x="152" y="658"/>
      <point x="120" y="532" type="curve" smooth="yes"/>
      <point x="109" y="488"/>
      <point x="70" y="490"/>
      <point x="46" y="490" type="curve"/>
      <point x="38" y="427" type="line"/>
      <point x="109" y="427" type="line"/>
      <point x="44" y="-52" type="line" smooth="yes"/>
      <point x="32" y="-139"/>
      <point x="-9" y="-182"/>
    </contour>
  </outline>
</glyph>
<glyph name="acute.loclPLK" format="2">
  <advance width="219"/>
  <anchor x="109" y="490" name="_top"/>
  <outline>
    <contour>
      <point x="136" y="733" type="line"/>
      <point x="78" y="581" type="line"/>
      <point x="156" y="581" type="line"/>
      <point x="258" y="733" type="line"/>
    </contour>
  </outline>
</glyph>
<glyph name="breve.case" format="2">
  <advance width="279"/>
  <anchor x="208" y="724" name="_top"/>
  <outline>
    <contour>
      <point x="371" y="899" type="curve"/>
      <point x="322" y="899" type="line"/>
      <point x="307" y="867"/>
      <point x="273" y="849"/>
      <point x="225" y="849" type="curve" smooth="yes"/>
      <point x="177" y="849"/>
      <point x="146" y="867"/>
      <point x="142" y="899" type="curve"/>
      <point x="92" y="899" type="line"/>
      <point x="90" y="830"/>
      <point x="127" y="780"/>
      <point x="214" y="780" type="curve" smooth="yes"/>
      <point x="304" y="780"/>
      <point x="353" y="830"/>
    </contour>
  </outline>
</glyph>
<glyph name="breveacute.case" format="2">
  <advance width="278"/>
  <anchor x="208" y="724" name="_top"/>
  <outline>
    <contour>
      <point x="371" y="899" type="curve"/>
      <point x="322" y="899" type="line"/>
      <point x="306" y="867"/>
      <point x="273" y="849"/>
      <point x="225" y="849" type="curve" smooth="yes"/>
      <point x="177" y="849"/>
      <point x="145" y="867"/>
      <point x="142" y="899" type="curve"/>
      <point x="92" y="899" type="line"/>
      <point x="89" y="830"/>
      <point x="126" y="780"/>
      <point x="213" y="780" type="curve" smooth="yes"/>
      <point x="303" y="780"/>
      <point x="352" y="830"/>
    </contour>
    <contour>
      <point x="292" y="1009" type="line"/>
      <point x="200" y="898" type="line"/>
      <point x="258" y="898" type="line"/>
      <point x="394" y="1009" type="line"/>
    </contour>
  </outline>
</glyph>
<glyph name="brevebelow" format="2">
  <advance width="279"/>
  <anchor x="105" y="0" name="bottom"/>
  <outline>
    <contour>
      <point x="236" y="-62" type="curve"/>
      <point x="187" y="-62" type="line"/>
      <point x="169" y="-109"/>
      <point x="135" y="-132"/>
      <point x="87" y="-132" type="curve" smooth="yes"/>
      <point x="39" y="-132"/>
      <point x="10" y="-110"/>
      <point x="7" y="-62" type="curve"/>
      <point x="-43" y="-62" type="line"/>
      <point x="-46" y="-144"/>
      <point x="-10" y="-201"/>
      <point x="77" y="-201" type="curve" smooth="yes"/>
      <point x="167" y="-201"/>
      <point x="215" y="-146"/>
    </contour>
  </outline>
</glyph>
<glyph name="brevegrave.case" format="2">
  <advance width="280"/>
  <anchor x="208" y="724" name="_top"/>
  <outline>
    <contour>
      <point x="93" y="899" type="line"/>
      <point x="92" y="830"/>
      <point x="127" y="780"/>
      <point x="217" y="780" type="curve" smooth="yes"/>
      <point x="304" y="780"/>
      <point x="355" y="830"/>
      <point x="372" y="899" type="curve"/>
      <point x="322" y="899" type="line"/>
      <point x="309" y="867"/>
      <point x="273" y="849"/>
      <point x="225" y="849" type="curve" smooth="yes"/>
      <point x="177" y="849"/>
      <point x="148" y="867"/>
      <point x="142" y="899" type="curve"/>
    </contour>
    <contour>
      <point x="202" y="1009" type="line"/>
      <point x="100" y="1009" type="line"/>
      <point x="204" y="898" type="line"/>
      <point x="262" y="898" type="line"/>
    </contour>
  </outline>
</glyph>
<glyph name="brevehook.case" format="2">
  <advance width="279"/>
  <anchor x="208" y="724" name="_top"/>
  <outline>
    <contour>
      <point x="371" y="899" type="curve"/>
      <point x="322" y="899" type="line"/>
      <point x="307" y="867"/>
      <point x="273" y="849"/>
      <point x="225" y="849" type="curve" smooth="yes"/>
      <point x="177" y="849"/>
      <point x="146" y="867"/>
      <point x="142" y="899" type="curve"/>
      <point x="92" y="899" type="line"/>
      <point x="89" y="830"/>
      <point x="126" y="780"/>
      <point x="213" y="780" type="curve" smooth="yes"/>
      <point x="303" y="780"/>
      <point x="352" y="830"/>
    </contour>
    <contour>
      <point x="216" y="899" type="line"/>
      <point x="249" y="899" type="line"/>
      <point x="262" y="940" type="line"/>
      <point x="317" y="943"/>
      <point x="359" y="977"/>
      <point x="359" y="1026" type="curve" smooth="yes"/>
      <point x="359" y="1066"/>
      <point x="323" y="1088"/>
      <point x="278" y="1088" type="curve" smooth="yes"/>
      <point x="248" y="1088"/>
      <point x="216" y="1079"/>
      <point x="187" y="1060" type="curve"/>
      <point x="201" y="1022" type="line"/>
      <point x="219" y="1033"/>
      <point x="239" y="1039"/>
      <point x="256" y="1039" type="curve" smooth="yes"/>
      <point x="277" y="1039"/>
      <point x="289" y="1030"/>
      <point x="289" y="1010" type="curve" smooth="yes"/>
      <point x="289" y="981"/>
      <point x="263" y="974"/>
      <point x="242" y="974" type="curve" smooth="yes"/>
      <point x="233" y="974"/>
      <point x="224" y="975"/>
      <point x="217" y="977" type="curve"/>
    </contour>
  </outline>
</glyph>
<glyph name="brevehook" format="2">
  <advance width="279"/>
  <anchor x="175" y="490" name="_top"/>
  <outline>
    <contour>
      <point x="347" y="728" type="curve"/>
      <point x="298" y="728" type="line"/>
      <point x="280" y="681"/>
      <point x="246" y="658"/>
      <point x="198" y="658" type="curve" smooth="yes"/>
      <point x="150" y="658"/>
      <point x="121" y="680"/>
      <point x="118" y="728" type="curve"/>
      <point x="68" y="728" type="line"/>
      <point x="65" y="646"/>
      <point x="101" y="589"/>
      <point x="188" y="589" type="curve" smooth="yes"/>
      <point x="278" y="589"/>
      <point x="326" y="644"/>
    </contour>
    <contour>
      <point x="190" y="726" type="line"/>
      <point x="223" y="726" type="line"/>
      <point x="236" y="767" type="line"/>
      <point x="292" y="770"/>
      <point x="333" y="804"/>
      <point x="333" y="853" type="curve" smooth="yes"/>
      <point x="333" y="893"/>
      <point x="297" y="915"/>
      <point x="252" y="915" type="curve" smooth="yes"/>
      <point x="222" y="915"/>
      <point x="191" y="906"/>
      <point x="161" y="887" type="curve"/>
      <point x="176" y="849" type="line"/>
      <point x="193" y="860"/>
      <point x="213" y="866"/>
      <point x="230" y="866" type="curve" smooth="yes"/>
      <point x="251" y="866"/>
      <point x="263" y="857"/>
      <point x="263" y="837" type="curve" smooth="yes"/>
      <point x="263" y="808"/>
      <point x="237" y="801"/>
      <point x="216" y="801" type="curve" smooth="yes"/>
      <point x="207" y="801"/>
      <point x="198" y="802"/>
      <point x="191" y="804" type="curve"/>
    </contour>
  </outline>
</glyph>
<glyph name="breveinverted.case" format="2">
  <advance width="279"/>
  <anchor x="208" y="724" name="_top"/>
  <outline>
    <contour>
      <point x="76" y="780" type="curve"/>
      <point x="125" y="780" type="line"/>
      <point x="140" y="812"/>
      <point x="174" y="830"/>
      <point x="222" y="830" type="curve" smooth="yes"/>
      <point x="270" y="830"/>
      <point x="301" y="812"/>
      <point x="305" y="780" type="curve"/>
      <point x="355" y="780" type="line"/>
      <point x="357" y="849"/>
      <point x="320" y="899"/>
      <point x="233" y="899" type="curve" smooth="yes"/>
      <point x="143" y="899"/>
      <point x="94" y="849"/>
    </contour>
  </outline>
</glyph>
<glyph name="caron.alt" format="2">
  <advance width="186"/>
  <anchor x="-124" y="490" name="_topright"/>
  <outline>
    <contour>
      <point x="111" y="733" type="line"/>
      <point x="79" y="581" type="line"/>
      <point x="152" y="581" type="line"/>
      <point x="223" y="733" type="line"/>
    </contour>
  </outline>
</glyph>
<glyph name="circumflex.case" format="2">
  <advance width="291"/>
  <anchor x="211" y="724" name="_top"/>
  <outline>
    <contour>
      <point x="226" y="834" type="line"/>
      <point x="297" y="772" type="line"/>
      <point x="366" y="772" type="line"/>
      <point x="278" y="907" type="line"/>
      <point x="195" y="907" type="line"/>
      <point x="75" y="773" type="line"/>
      <point x="142" y="773" type="line"/>
    </contour>
  </outline>
</glyph>
<glyph name="circumflexacute.case" format="2">
  <advance width="291"/>
  <anchor x="211" y="724" name="_top"/>
  <outline>
    <contour>
      <point x="226" y="834" type="line"/>
      <point x="297" y="772" type="line"/>
      <point x="366" y="772" type="line"/>
      <point x="278" y="907" type="line"/>
      <point x="195" y="907" type="line"/>
      <point x="75" y="773" type="line"/>
      <point x="142" y="773" type="line"/>
    </contour>
    <contour>
      <point x="275" y="1035" type="line"/>
      <point x="208" y="934" type="line"/>
      <point x="278" y="934" type="line"/>
      <point x="377" y="1035" type="line"/>
    </contour>
  </outline>
</glyph>
<glyph name="circumflexacute" format="2">
  <advance width="290"/>
  <anchor x="178" y="490" name="_top"/>
  <outline>
    <contour>
      <point x="201" y="661" type="line"/>
      <point x="268" y="579" type="line"/>
      <point x="337" y="579" type="line"/>
      <point x="253" y="734" type="line"/>
      <point x="170" y="734" type="line"/>
      <point x="47" y="580" type="line"/>
      <point x="114" y="580" type="line"/>
    </contour>
    <contour>
      <point x="254" y="886" type="line"/>
      <point x="182" y="774" type="line"/>
      <point x="250" y="774" type="line"/>
      <point x="366" y="886" type="line"/>
    </contour>
  </outline>
</glyph>
<glyph name="circumflexgrave.case" format="2">
  <advance width="291"/>
  <anchor x="216" y="724" name="_top"/>
  <outline>
    <contour>
      <point x="231" y="834" type="line"/>
      <point x="299" y="773" type="line"/>
      <point x="366" y="773" type="line"/>
      <point x="282" y="907" type="line"/>
      <point x="199" y="907" type="line"/>
      <point x="75" y="772" type="line"/>
      <point x="144" y="772" type="line"/>
    </contour>
    <contour>
      <point x="238" y="1035" type="line"/>
      <point x="136" y="1035" type="line"/>
      <point x="207" y="934" type="line"/>
      <point x="277" y="934" type="line"/>
    </contour>
  </outline>
</glyph>
<glyph name="circumflexgrave" format="2">
  <advance width="292"/>
  <anchor x="184" y="490" name="_top"/>
  <outline>
    <contour>
      <point x="207" y="661" type="line"/>
      <point x="272" y="580" type="line"/>
      <point x="339" y="580" type="line"/>
      <point x="258" y="734" type="line"/>
      <point x="175" y="734" type="line"/>
      <point x="47" y="579" type="line"/>
      <point x="116" y="579" type="line"/>
    </contour>
    <contour>
      <point x="218" y="886" type="line"/>
      <point x="106" y="886" type="line"/>
      <point x="190" y="774" type="line"/>
      <point x="258" y="774" type="line"/>
    </contour>
  </outline>
</glyph>
<glyph name="circumflexhook.case" format="2">
  <advance width="291"/>
  <anchor x="212" y="724" name="_top"/>
  <outline>
    <contour>
      <point x="227" y="834" type="line"/>
      <point x="297" y="772" type="line"/>
      <point x="366" y="772" type="line"/>
      <point x="279" y="907" type="line"/>
      <point x="196" y="907" type="line"/>
      <point x="75" y="773" type="line"/>
      <point x="142" y="773" type="line"/>
    </contour>
    <contour>
      <point x="224" y="927" type="line"/>
      <point x="257" y="927" type="line"/>
      <point x="269" y="968" type="line"/>
      <point x="326" y="971"/>
      <point x="366" y="1002"/>
      <point x="366" y="1055" type="curve" smooth="yes"/>
      <point x="366" y="1094"/>
      <point x="330" y="1116"/>
      <point x="285" y="1116" type="curve" smooth="yes"/>
      <point x="255" y="1116"/>
      <point x="224" y="1107"/>
      <point x="194" y="1088" type="curve"/>
      <point x="209" y="1050" type="line"/>
      <point x="226" y="1061"/>
      <point x="246" y="1067"/>
      <point x="263" y="1067" type="curve" smooth="yes"/>
      <point x="282" y="1067"/>
      <point x="296" y="1060"/>
      <point x="296" y="1044" type="curve" smooth="yes"/>
      <point x="296" y="1016"/>
      <point x="277" y="1002"/>
      <point x="249" y="1002" type="curve" smooth="yes"/>
      <point x="240" y="1002"/>
      <point x="231" y="1003"/>
      <point x="225" y="1005" type="curve"/>
    </contour>
  </outline>
</glyph>
<glyph name="circumflextilde.case" format="2">
  <advance width="291"/>
  <anchor x="212" y="724" name="_top"/>
  <outline>
    <contour>
      <point x="227" y="834" type="line"/>
      <point x="297" y="772" type="line"/>
      <point x="366" y="772" type="line"/>
      <point x="279" y="907" type="line"/>
      <point x="196" y="907" type="line"/>
      <point x="75" y="773" type="line"/>
      <point x="142" y="773" type="line"/>
    </contour>
    <contour>
      <point x="393" y="1031" type="curve"/>
      <point x="346" y="1031" type="line"/>
      <point x="339" y="1016"/>
      <point x="328" y="1005"/>
      <point x="312" y="1005" type="curve" smooth="yes"/>
      <point x="272" y="1005"/>
      <point x="258" y="1044"/>
      <point x="205" y="1044" type="curve" smooth="yes"/>
      <point x="150" y="1044"/>
      <point x="113" y="998"/>
      <point x="102" y="944" type="curve"/>
      <point x="151" y="944" type="line"/>
      <point x="155" y="957"/>
      <point x="167" y="971"/>
      <point x="184" y="971" type="curve" smooth="yes"/>
      <point x="235" y="971"/>
      <point x="242" y="932"/>
      <point x="299" y="932" type="curve" smooth="yes"/>
      <point x="351" y="932"/>
      <point x="384" y="981"/>
    </contour>
  </outline>
</glyph>
<glyph name="circumflextilde" format="2">
  <advance width="291"/>
  <anchor x="179" y="490" name="_top"/>
  <outline>
    <contour>
      <point x="202" y="661" type="line"/>
      <point x="269" y="579" type="line"/>
      <point x="338" y="579" type="line"/>
      <point x="254" y="734" type="line"/>
      <point x="171" y="734" type="line"/>
      <point x="47" y="580" type="line"/>
      <point x="114" y="580" type="line"/>
    </contour>
    <contour>
      <point x="374" y="860" type="curve"/>
      <point x="327" y="860" type="line"/>
      <point x="320" y="845"/>
      <point x="308" y="834"/>
      <point x="292" y="834" type="curve" smooth="yes"/>
      <point x="252" y="834"/>
      <point x="239" y="873"/>
      <point x="186" y="873" type="curve" smooth="yes"/>
      <point x="131" y="873"/>
      <point x="93" y="827"/>
      <point x="83" y="773" type="curve"/>
      <point x="132" y="773" type="line"/>
      <point x="135" y="786"/>
      <point x="147" y="800"/>
      <point x="164" y="800" type="curve" smooth="yes"/>
      <point x="215" y="800"/>
      <point x="223" y="761"/>
      <point x="280" y="761" type="curve" smooth="yes"/>
      <point x="332" y="761"/>
      <point x="365" y="810"/>
    </contour>
  </outline>
</glyph>
<glyph name="commaabove" format="2">
  <advance width="279"/>
  <anchor x="176" y="490" name="_top"/>
  <outline>
    <contour>
      <point x="210" y="782" type="curve" smooth="yes"/>
      <point x="182" y="782"/>
      <point x="155" y="761"/>
      <point x="151" y="732" type="curve" smooth="yes"/>
      <point x="145" y="691"/>
      <point x="186" y="683"/>
      <point x="183" y="661" type="curve" smooth="yes"/>
      <point x="180" y="639"/>
      <point x="149" y="616"/>
      <point x="133" y="601" type="curve"/>
      <point x="158" y="573" type="line"/>
      <point x="208" y="606"/>
      <point x="255" y="654"/>
      <point x="263" y="711" type="curve" smooth="yes"/>
      <point x="268" y="749"/>
      <point x="250" y="782"/>
    </contour>
  </outline>
</glyph>
<glyph name="commabelow" format="2">
  <advance width="235"/>
  <anchor x="78" y="0" name="_bottom"/>
  <outline>
    <contour>
      <point x="63" y="-77" type="curve" smooth="yes"/>
      <point x="32" y="-77"/>
      <point x="3" y="-102"/>
      <point x="3" y="-135" type="curve" smooth="yes"/>
      <point x="3" y="-168"/>
      <point x="36" y="-177"/>
      <point x="36" y="-196" type="curve" smooth="yes"/>
      <point x="36" y="-218"/>
      <point x="3" y="-243"/>
      <point x="-14" y="-258" type="curve"/>
      <point x="11" y="-286" type="line"/>
      <point x="61" y="-253"/>
      <point x="117" y="-197"/>
      <point x="117" y="-136" type="curve" smooth="yes"/>
      <point x="117" y="-103"/>
      <point x="99" y="-77"/>
    </contour>
  </outline>
</glyph>
<glyph name="commaturnedabove" format="2">
  <advance width="279"/>
  <anchor x="176" y="490" name="_top"/>
  <outline>
    <contour>
      <point x="191" y="573" type="curve" smooth="yes"/>
      <point x="219" y="573"/>
      <point x="246" y="594"/>
      <point x="250" y="623" type="curve" smooth="yes"/>
      <point x="256" y="664"/>
      <point x="215" y="672"/>
      <point x="218" y="694" type="curve" smooth="yes"/>
      <point x="221" y="716"/>
      <point x="252" y="739"/>
      <point x="268" y="754" type="curve"/>
      <point x="243" y="782" type="line"/>
      <point x="193" y="749"/>
      <point x="146" y="701"/>
      <point x="138" y="644" type="curve" smooth="yes"/>
      <point x="133" y="606"/>
      <point x="151" y="573"/>
    </contour>
  </outline>
</glyph>
<glyph name="dblgrave" format="2">
  <advance width="379"/>
  <anchor x="293" y="490" name="_top"/>
  <outline>
    <contour>
      <point x="348" y="733" type="line"/>
      <point x="230" y="733" type="line"/>
      <point x="345" y="581" type="line"/>
      <point x="407" y="581" type="line"/>
    </contour>
    <contour>
      <point x="206" y="733" type="line"/>
      <point x="89" y="733" type="line"/>
      <point x="204" y="581" type="line"/>
      <point x="265" y="581" type="line"/>
    </contour>
  </outline>
</glyph>
<glyph name="dieresis.case" format="2">
  <advance width="276"/>
  <anchor x="207" y="724" name="_top"/>
  <outline>
    <contour>
      <point x="197" y="846" type="curve" smooth="yes"/>
      <point x="197" y="874"/>
      <point x="177" y="895"/>
      <point x="148" y="895" type="curve" smooth="yes"/>
      <point x="115" y="895"/>
      <point x="84" y="865"/>
      <point x="84" y="830" type="curve" smooth="yes"/>
      <point x="84" y="803"/>
      <point x="104" y="781"/>
      <point x="132" y="781" type="curve" smooth="yes"/>
      <point x="166" y="781"/>
      <point x="197" y="811"/>
    </contour>
    <contour>
      <point x="360" y="846" type="curve" smooth="yes"/>
      <point x="360" y="874"/>
      <point x="340" y="895"/>
      <point x="311" y="895" type="curve" smooth="yes"/>
      <point x="278" y="895"/>
      <point x="247" y="865"/>
      <point x="247" y="830" type="curve" smooth="yes"/>
      <point x="247" y="803"/>
      <point x="267" y="781"/>
      <point x="295" y="781" type="curve" smooth="yes"/>
      <point x="329" y="781"/>
      <point x="360" y="811"/>
    </contour>
  </outline>
</glyph>
<glyph name="dieresisacute.case" format="2">
  <advance width="276"/>
  <anchor x="207" y="724" name="_top"/>
  <outline>
    <contour>
      <point x="273" y="1047" type="line"/>
      <point x="201" y="935" type="line"/>
      <point x="269" y="935" type="line"/>
      <point x="385" y="1047" type="line"/>
    </contour>
    <contour>
      <point x="198" y="847" type="curve" smooth="yes"/>
      <point x="198" y="875"/>
      <point x="177" y="895"/>
      <point x="148" y="895" type="curve" smooth="yes"/>
      <point x="115" y="895"/>
      <point x="84" y="865"/>
      <point x="84" y="830" type="curve" smooth="yes"/>
      <point x="84" y="803"/>
      <point x="104" y="781"/>
      <point x="132" y="781" type="curve" smooth="yes"/>
      <point x="166" y="781"/>
      <point x="198" y="812"/>
    </contour>
    <contour>
      <point x="361" y="847" type="curve" smooth="yes"/>
      <point x="361" y="875"/>
      <point x="340" y="895"/>
      <point x="311" y="895" type="curve" smooth="yes"/>
      <point x="278" y="895"/>
      <point x="247" y="865"/>
      <point x="247" y="830" type="curve" smooth="yes"/>
      <point x="247" y="803"/>
      <point x="267" y="781"/>
      <point x="295" y="781" type="curve" smooth="yes"/>
      <point x="329" y="781"/>
      <point x="361" y="812"/>
    </contour>
  </outline>
</glyph>
<glyph name="dieresisgrave.case" format="2">
  <advance width="276"/>
  <anchor x="207" y="724" name="_top"/>
  <outline>
    <contour>
      <point x="231" y="1047" type="line"/>
      <point x="119" y="1047" type="line"/>
      <point x="203" y="935" type="line"/>
      <point x="271" y="935" type="line"/>
    </contour>
    <contour>
      <point x="247" y="831" type="curve" smooth="yes"/>
      <point x="247" y="803"/>
      <point x="267" y="781"/>
      <point x="296" y="781" type="curve" smooth="yes"/>
      <point x="330" y="781"/>
      <point x="361" y="812"/>
      <point x="361" y="847" type="curve" smooth="yes"/>
      <point x="361" y="874"/>
      <point x="340" y="895"/>
      <point x="312" y="895" type="curve" smooth="yes"/>
      <point x="278" y="895"/>
      <point x="247" y="866"/>
    </contour>
    <contour>
      <point x="84" y="831" type="curve" smooth="yes"/>
      <point x="84" y="803"/>
      <point x="104" y="781"/>
      <point x="133" y="781" type="curve" smooth="yes"/>
      <point x="167" y="781"/>
      <point x="198" y="812"/>
      <point x="198" y="847" type="curve" smooth="yes"/>
      <point x="198" y="874"/>
      <point x="177" y="895"/>
      <point x="149" y="895" type="curve" smooth="yes"/>
      <point x="115" y="895"/>
      <point x="84" y="866"/>
    </contour>
  </outline>
</glyph>
<glyph name="dieresisgrave" format="2">
  <advance width="296"/>
  <anchor x="184" y="490" name="_top"/>
  <outline>
    <contour>
      <point x="210" y="867" type="line"/>
      <point x="98" y="867" type="line"/>
      <point x="182" y="755" type="line"/>
      <point x="250" y="755" type="line"/>
    </contour>
    <contour>
      <point x="231" y="650" type="curve" smooth="yes"/>
      <point x="231" y="622"/>
      <point x="251" y="600"/>
      <point x="280" y="600" type="curve" smooth="yes"/>
      <point x="314" y="600"/>
      <point x="345" y="631"/>
      <point x="345" y="666" type="curve" smooth="yes"/>
      <point x="345" y="693"/>
      <point x="324" y="714"/>
      <point x="296" y="714" type="curve" smooth="yes"/>
      <point x="262" y="714"/>
      <point x="231" y="685"/>
    </contour>
    <contour>
      <point x="68" y="650" type="curve" smooth="yes"/>
      <point x="68" y="622"/>
      <point x="88" y="600"/>
      <point x="117" y="600" type="curve" smooth="yes"/>
      <point x="151" y="600"/>
      <point x="182" y="631"/>
      <point x="182" y="666" type="curve" smooth="yes"/>
      <point x="182" y="693"/>
      <point x="161" y="714"/>
      <point x="133" y="714" type="curve" smooth="yes"/>
      <point x="99" y="714"/>
      <point x="68" y="685"/>
    </contour>
  </outline>
</glyph>
<glyph name="dieresismacron" format="2">
  <advance width="324"/>
  <anchor x="197" y="490" name="_top"/>
  <outline>
    <contour>
      <point x="93" y="832" type="line"/>
      <point x="84" y="768" type="line"/>
      <point x="388" y="768" type="line"/>
      <point x="397" y="832" type="line"/>
    </contour>
    <contour>
      <point x="195" y="665" type="curve" smooth="yes"/>
      <point x="195" y="693"/>
      <point x="175" y="714"/>
      <point x="146" y="714" type="curve" smooth="yes"/>
      <point x="112" y="714"/>
      <point x="81" y="683"/>
      <point x="81" y="648" type="curve" smooth="yes"/>
      <point x="81" y="621"/>
      <point x="102" y="600"/>
      <point x="130" y="600" type="curve" smooth="yes"/>
      <point x="164" y="600"/>
      <point x="195" y="630"/>
    </contour>
    <contour>
      <point x="358" y="665" type="curve" smooth="yes"/>
      <point x="358" y="693"/>
      <point x="338" y="714"/>
      <point x="309" y="714" type="curve" smooth="yes"/>
      <point x="275" y="714"/>
      <point x="244" y="683"/>
      <point x="244" y="648" type="curve" smooth="yes"/>
      <point x="244" y="621"/>
      <point x="265" y="600"/>
      <point x="293" y="600" type="curve" smooth="yes"/>
      <point x="327" y="600"/>
      <point x="358" y="630"/>
    </contour>
  </outline>
</glyph>
<glyph name="dotaccent.case" format="2">
  <advance width="273"/>
  <anchor x="205" y="724" name="_top"/>
  <outline>
    <contour>
      <point x="277" y="846" type="curve" smooth="yes"/>
      <point x="277" y="874"/>
      <point x="257" y="895"/>
      <point x="228" y="895" type="curve" smooth="yes"/>
      <point x="195" y="895"/>
      <point x="164" y="865"/>
      <point x="164" y="830" type="curve" smooth="yes"/>
      <point x="164" y="803"/>
      <point x="184" y="781"/>
      <point x="212" y="781" type="curve" smooth="yes"/>
      <point x="246" y="781"/>
      <point x="277" y="811"/>
    </contour>
  </outline>
</glyph>
<glyph name="dotaccentmacron.case" format="2">
  <advance width="324"/>
  <anchor x="230" y="724" name="_top"/>
  <outline>
    <contour>
      <point x="119" y="1014" type="line"/>
      <point x="110" y="950" type="line"/>
      <point x="414" y="950" type="line"/>
      <point x="423" y="1014" type="line"/>
    </contour>
    <contour>
      <point x="302" y="847" type="curve" smooth="yes"/>
      <point x="302" y="875"/>
      <point x="282" y="896"/>
      <point x="253" y="896" type="curve" smooth="yes"/>
      <point x="219" y="896"/>
      <point x="188" y="865"/>
      <point x="188" y="830" type="curve" smooth="yes"/>
      <point x="188" y="803"/>
      <point x="209" y="782"/>
      <point x="237" y="782" type="curve" smooth="yes"/>
      <point x="271" y="782"/>
      <point x="302" y="812"/>
    </contour>
  </outline>
</glyph>
<glyph name="f_f" format="2">
  <advance width="538"/>
  <outline>
    <contour>
      <point x="-93" y="-164" type="curve"/>
      <point x="-107" y="-222" type="line"/>
      <point x="13" y="-254"/>
      <point x="103" y="-197"/>
      <point x="122" y="-61" type="curve" smooth="yes"/>
      <point x="189" y="427" type="line"/>
      <point x="401" y="427" type="line"/>
      <point x="409" y="490" type="line"/>
      <point x="197" y="490" type="line"/>
      <point x="209" y="593"/>
      <point x="219" y="707"/>
      <point x="313" y="707" type="curve" smooth="yes"/>
      <point x="337" y="707"/>
      <point x="358" y="694"/>
      <point x="378" y="672" type="curve"/>
      <point x="417" y="731" type="line"/>
      <point x="388" y="752"/>
      <point x="350" y="770"/>
      <point x="307" y="770" type="curve" smooth="yes"/>
      <point x="175" y="770"/>
      <point x="141" y="659"/>
      <point x="120" y="532" type="curve" smooth="yes"/>
      <point x="113" y="488"/>
      <point x="70" y="490"/>
      <point x="46" y="490" type="curve"/>
      <point x="38" y="427" type="line"/>
      <point x="109" y="427" type="line"/>
      <point x="44" y="-52" type="line" smooth="yes"/>
      <point x="33" y="-138"/>
      <point x="-9" y="-182"/>
    </contour>
    <contour>
      <point x="176" y="-164" type="curve"/>
      <point x="162" y="-222" type="line"/>
      <point x="282" y="-254"/>
      <point x="372" y="-197"/>
      <point x="391" y="-61" type="curve" smooth="yes"/>
      <point x="458" y="427" type="line"/>
      <point x="570" y="427" type="line"/>
      <point x="578" y="490" type="line"/>
      <point x="466" y="490" type="line"/>
      <point x="478" y="593"/>
      <point x="498" y="707"/>
      <point x="612" y="707" type="curve" smooth="yes"/>
      <point x="640" y="707"/>
      <point x="666" y="694"/>
      <point x="687" y="672" type="curve"/>
      <point x="726" y="731" type="line"/>
      <point x="694" y="753"/>
      <point x="660" y="770"/>
      <point x="606" y="770" type="curve" smooth="yes"/>
      <point x="464" y="770"/>
      <point x="420" y="659"/>
      <point x="389" y="532" type="curve" smooth="yes"/>
      <point x="378" y="488"/>
      <point x="339" y="490"/>
      <point x="315" y="490" type="curve"/>
      <point x="307" y="427" type="line"/>
      <point x="378" y="427" type="line"/>
      <point x="313" y="-52" type="line" smooth="yes"/>
      <point x="302" y="-138"/>
      <point x="260" y="-182"/>
    </contour>
  </outline>
</glyph>
<glyph name="f_f_i" format="2">
  <advance width="769"/>
  <outline>
    <contour>
      <point x="-93" y="-164" type="curve"/>
      <point x="-107" y="-222" type="line"/>
      <point x="13" y="-254"/>
      <point x="103" y="-197"/>
      <point x="122" y="-61" type="curve" smooth="yes"/>
      <point x="189" y="427" type="line"/>
      <point x="401" y="427" type="line"/>
      <point x="409" y="490" type="line"/>
      <point x="197" y="490" type="line"/>
      <point x="209" y="593"/>
      <point x="219" y="707"/>
      <point x="313" y="707" type="curve" smooth="yes"/>
      <point x="337" y="707"/>
      <point x="358" y="694"/>
      <point x="378" y="672" type="curve"/>
      <point x="417" y="731" type="line"/>
      <point x="388" y="752"/>
      <point x="350" y="770"/>
      <point x="307" y="770" type="curve" smooth="yes"/>
      <point x="175" y="770"/>
      <point x="141" y="659"/>
      <point x="120" y="532" type="curve" smooth="yes"/>
      <point x="113" y="487"/>
      <point x="70" y="490"/>
      <point x="46" y="490" type="curve"/>
      <point x="38" y="427" type="line"/>
      <point x="109" y="427" type="line"/>
      <point x="44" y="-52" type="line" smooth="yes"/>
      <point x="33" y="-138"/>
      <point x="-9" y="-182"/>
    </contour>
    <contour>
      <point x="176" y="-164" type="curve"/>
      <point x="162" y="-222" type="line"/>
      <point x="282" y="-254"/>
      <point x="373" y="-197"/>
      <point x="391" y="-62" type="curve" smooth="yes"/>
      <point x="458" y="427" type="line"/>
      <point x="641" y="427" type="line"/>
      <point x="584" y="0" type="line"/>
      <point x="673" y="0" type="line"/>
      <point x="673" y="62" type="line"/>
      <point x="729" y="490" type="line"/>
      <point x="468" y="490" type="line"/>
      <point x="484" y="643"/>
      <point x="525" y="707"/>
      <point x="605" y="707" type="curve" smooth="yes"/>
      <point x="648" y="707"/>
      <point x="678" y="682"/>
      <point x="683" y="635" type="curve"/>
      <point x="760" y="658" type="line"/>
      <point x="745" y="733"/>
      <point x="685" y="771"/>
      <point x="608" y="771" type="curve" smooth="yes"/>
      <point x="464" y="771"/>
      <point x="421" y="658"/>
      <point x="389" y="532" type="curve" smooth="yes"/>
      <point x="378" y="488"/>
      <point x="339" y="490"/>
      <point x="315" y="490" type="curve"/>
      <point x="307" y="427" type="line"/>
      <point x="378" y="427" type="line"/>
      <point x="313" y="-52" type="line" smooth="yes"/>
      <point x="301" y="-139"/>
      <point x="260" y="-182"/>
    </contour>
  </outline>
</glyph>
<glyph name="f_iacute" format="2">
  <advance width="517"/>
  <outline>
    <contour>
      <point x="-93" y="-164" type="curve"/>
      <point x="-107" y="-222" type="line"/>
      <point x="13" y="-254"/>
      <point x="103" y="-197"/>
      <point x="122" y="-61" type="curve" smooth="yes"/>
      <point x="189" y="427" type="line"/>
      <point x="421" y="427" type="line"/>
      <point x="429" y="490" type="line"/>
      <point x="197" y="490" type="line"/>
      <point x="209" y="593"/>
      <point x="219" y="707"/>
      <point x="331" y="707" type="curve" smooth="yes"/>
      <point x="359" y="707"/>
      <point x="385" y="695"/>
      <point x="406" y="673" type="curve"/>
      <point x="449" y="731" type="line"/>
      <point x="417" y="753"/>
      <point x="381" y="770"/>
      <point x="327" y="770" type="curve" smooth="yes"/>
      <point x="185" y="770"/>
      <point x="151" y="659"/>
      <point x="120" y="532" type="curve" smooth="yes"/>
      <point x="109" y="488"/>
      <point x="70" y="490"/>
      <point x="46" y="490" type="curve"/>
      <point x="38" y="427" type="line"/>
      <point x="109" y="427" type="line"/>
      <point x="44" y="-52" type="line" smooth="yes"/>
      <point x="33" y="-138"/>
      <point x="-9" y="-182"/>
    </contour>
    <contour>
      <point x="418" y="0" type="line"/>
      <point x="418" y="58" type="line"/>
      <point x="476" y="490" type="line"/>
      <point x="388" y="490" type="line"/>
      <point x="388" y="433" type="line"/>
      <point x="330" y="0" type="line"/>
    </contour>
    <contour>
      <point x="520" y="733" type="line"/>
      <point x="402" y="581" type="line"/>
      <point x="480" y="581" type="line"/>
      <point x="642" y="733" type="line"/>
    </contour>
  </outline>
</glyph>
<glyph name="four.lf" format="2">
  <advance width="507"/>
  <outline>
    <contour>
      <point x="343" y="698" type="line"/>
      <point x="9" y="220" type="line"/>
      <point x="3" y="180" type="line"/>
      <point x="285" y="180" type="line"/>
      <point x="260" y="0" type="line"/>
      <point x="343" y="0" type="line"/>
      <point x="368" y="180" type="line"/>
      <point x="451" y="180" type="line"/>
      <point x="479" y="249" type="line"/>
      <point x="378" y="249" type="line"/>
      <point x="441" y="698" type="line"/>
    </contour>
    <contour>
      <point x="344" y="599" type="line"/>
      <point x="295" y="249" type="line"/>
      <point x="105" y="249" type="line"/>
    </contour>
  </outline>
</glyph>
<glyph name="hook.case" format="2">
  <advance width="280"/>
  <anchor x="186" y="724" name="_top"/>
  <outline>
    <contour>
      <point x="173" y="764" type="line"/>
      <point x="209" y="764" type="line"/>
      <point x="224" y="809" type="line"/>
      <point x="283" y="813"/>
      <point x="331" y="849"/>
      <point x="331" y="904" type="curve" smooth="yes"/>
      <point x="331" y="948"/>
      <point x="291" y="972"/>
      <point x="241" y="972" type="curve" smooth="yes"/>
      <point x="209" y="972"/>
      <point x="173" y="962"/>
      <point x="141" y="942" type="curve"/>
      <point x="157" y="900" type="line"/>
      <point x="176" y="912"/>
      <point x="198" y="918"/>
      <point x="217" y="918" type="curve" smooth="yes"/>
      <point x="238" y="918"/>
      <point x="254" y="910"/>
      <point x="254" y="892" type="curve" smooth="yes"/>
      <point x="254" y="865"/>
      <point x="235" y="847"/>
      <point x="201" y="847" type="curve" smooth="yes"/>
      <point x="192" y="847"/>
      <point x="182" y="848"/>
      <point x="174" y="850" type="curve"/>
    </contour>
  </outline>
</glyph>
<glyph name="horn" format="2">
  <advance width="248"/>
  <anchor x="3" y="490" name="_topright"/>
  <outline>
    <contour>
      <point x="55" y="486" type="curve"/>
      <point x="47" y="428" type="line"/>
      <point x="182" y="392"/>
      <point x="269" y="498"/>
      <point x="279" y="598" type="curve"/>
      <point x="180" y="598" type="line"/>
      <point x="179" y="513"/>
      <point x="125" y="456"/>
    </contour>
  </outline>
</glyph>
<glyph name="macronbelow" format="2">
  <advance width="305"/>
  <anchor x="117" y="0" name="bottom"/>
  <outline>
    <contour>
      <point x="-48" y="-91" type="line"/>
      <point x="-56" y="-155" type="line"/>
      <point x="248" y="-155" type="line"/>
      <point x="256" y="-91" type="line"/>
    </contour>
  </outline>
</glyph>
<glyph name="one.lf" format="2">
  <advance width="458"/>
  <outline>
    <contour>
      <point x="43" y="67" type="line"/>
      <point x="33" y="-1" type="line"/>
      <point x="376" y="-1" type="line"/>
      <point x="386" y="67" type="line"/>
      <point x="258" y="67" type="line"/>
      <point x="346" y="697" type="line"/>
      <point x="296" y="697" type="line"/>
      <point x="98" y="614" type="line"/>
      <point x="110" y="567" type="line"/>
      <point x="249" y="599" type="line"/>
      <point x="175" y="67" type="line"/>
    </contour>
  </outline>
</glyph>
<glyph name="periodcentered.loclCAT.case" format="2">
  <advance width="293"/>
  <anchor x="-42" y="341" name="_center"/>
  <outline>
    <contour>
      <point x="279" y="369" type="curve" smooth="yes"/>
      <point x="279" y="401"/>
      <point x="254" y="427"/>
      <point x="221" y="427" type="curve" smooth="yes"/>
      <point x="181" y="427"/>
      <point x="145" y="392"/>
      <point x="145" y="351" type="curve" smooth="yes"/>
      <point x="145" y="319"/>
      <point x="170" y="295"/>
      <point x="203" y="295" type="curve" smooth="yes"/>
      <point x="242" y="295"/>
      <point x="279" y="329"/>
    </contour>
  </outline>
</glyph>
<glyph name="periodcentered.loclCAT" format="2">
  <advance width="293"/>
  <anchor x="-11" y="341" name="_center"/>
  <outline>
    <contour>
      <point x="216" y="269" type="curve" smooth="yes"/>
      <point x="216" y="301"/>
      <point x="191" y="327"/>
      <point x="158" y="327" type="curve" smooth="yes"/>
      <point x="118" y="327"/>
      <point x="82" y="292"/>
      <point x="82" y="251" type="curve" smooth="yes"/>
      <point x="82" y="219"/>
      <point x="107" y="195"/>
      <point x="140" y="195" type="curve" smooth="yes"/>
      <point x="179" y="195"/>
      <point x="216" y="229"/>
    </contour>
  </outline>
</glyph>
<glyph name="six.lf" format="2">
  <advance width="566"/>
  <outline>
    <contour>
      <point x="510" y="712" type="line"/>
      <point x="266" y="635"/>
      <point x="59" y="426"/>
      <point x="59" y="184" type="curve" smooth="yes"/>
      <point x="59" y="50"/>
      <point x="144" y="-13"/>
      <point x="243" y="-13" type="curve" smooth="yes"/>
      <point x="391" y="-13"/>
      <point x="510" y="114"/>
      <point x="510" y="259" type="curve" smooth="yes"/>
      <point x="510" y="364"/>
      <point x="437" y="425"/>
      <point x="343" y="425" type="curve" smooth="yes"/>
      <point x="291" y="425"/>
      <point x="233" y="406"/>
      <point x="178" y="366" type="curve"/>
      <point x="157" y="302" type="line"/>
      <point x="210" y="339"/>
      <point x="260" y="357"/>
      <point x="303" y="357" type="curve" smooth="yes"/>
      <point x="367" y="357"/>
      <point x="412" y="316"/>
      <point x="412" y="239" type="curve" smooth="yes"/>
      <point x="412" y="141"/>
      <point x="349" y="50"/>
      <point x="260" y="50" type="curve" smooth="yes"/>
      <point x="193" y="50"/>
      <point x="156" y="110"/>
      <point x="156" y="194" type="curve" smooth="yes"/>
      <point x="156" y="397"/>
      <point x="308" y="581"/>
      <point x="524" y="665" type="curve"/>
    </contour>
  </outline>
</glyph>
<glyph name="slashshortcomb.case" format="2">
  <anchor x="156" y="343" name="_center"/>
  <outline>
    <contour>
      <point x="7" y="241" type="line"/>
      <point x="408" y="416" type="line"/>
      <point x="418" y="485" type="line"/>
      <point x="17" y="310" type="line"/>
    </contour>
  </outline>
</glyph>
<glyph name="three.lf" format="2">
  <advance width="494"/>
  <outline>
    <contour>
      <point x="471" y="585" type="curve" smooth="yes"/>
      <point x="471" y="672"/>
      <point x="404" y="710"/>
      <point x="322" y="710" type="curve" smooth="yes"/>
      <point x="252" y="710"/>
      <point x="174" y="681"/>
      <point x="107" y="631" type="curve"/>
      <point x="143" y="574" type="line"/>
      <point x="192" y="618"/>
      <point x="256" y="646"/>
      <point x="304" y="646" type="curve" smooth="yes"/>
      <point x="347" y="646"/>
      <point x="378" y="624"/>
      <point x="378" y="572" type="curve" smooth="yes"/>
      <point x="378" y="506"/>
      <point x="306" y="417"/>
      <point x="141" y="368" type="curve"/>
      <point x="156" y="315" type="line"/>
      <point x="179" y="323"/>
      <point x="204" y="328"/>
      <point x="226" y="328" type="curve" smooth="yes"/>
      <point x="299" y="328"/>
      <point x="334" y="283"/>
      <point x="334" y="228" type="curve" smooth="yes"/>
      <point x="334" y="147"/>
      <point x="252" y="44"/>
      <point x="101" y="44" type="curve" smooth="yes"/>
      <point x="80" y="44"/>
      <point x="58" y="46"/>
      <point x="36" y="50" type="curve"/>
      <point x="16" y="0" type="line"/>
      <point x="46" y="-8"/>
      <point x="76" y="-12"/>
      <point x="107" y="-12" type="curve" smooth="yes"/>
      <point x="305" y="-12"/>
      <point x="433" y="135"/>
      <point x="433" y="248" type="curve" smooth="yes"/>
      <point x="433" y="314"/>
      <point x="388" y="369"/>
      <point x="290" y="375" type="curve"/>
      <point x="398" y="423"/>
      <point x="471" y="501"/>
    </contour>
  </outline>
</glyph>
<glyph name="tildemacron" format="2">
  <advance width="357"/>
  <anchor x="216" y="490" name="_top"/>
  <outline>
    <contour>
      <point x="401" y="701" type="curve"/>
      <point x="354" y="701" type="line"/>
      <point x="347" y="686"/>
      <point x="330" y="675"/>
      <point x="314" y="675" type="curve" smooth="yes"/>
      <point x="274" y="675"/>
      <point x="233" y="714"/>
      <point x="180" y="714" type="curve" smooth="yes"/>
      <point x="125" y="714"/>
      <point x="84" y="663"/>
      <point x="72" y="614" type="curve"/>
      <point x="121" y="614" type="line"/>
      <point x="128" y="628"/>
      <point x="141" y="641"/>
      <point x="158" y="641" type="curve" smooth="yes"/>
      <point x="209" y="641"/>
      <point x="245" y="602"/>
      <point x="302" y="602" type="curve" smooth="yes"/>
      <point x="354" y="602"/>
      <point x="389" y="656"/>
    </contour>
    <contour>
      <point x="108" y="832" type="line"/>
      <point x="99" y="768" type="line"/>
      <point x="403" y="768" type="line"/>
      <point x="412" y="832" type="line"/>
    </contour>
  </outline>
</glyph>
<glyph name="zero.lf" format="2">
  <advance width="620"/>
  <outline>
    <contour>
      <point x="377" y="709" type="curve" smooth="yes"/>
      <point x="158" y="709"/>
      <point x="75" y="467"/>
      <point x="75" y="226" type="curve" smooth="yes"/>
      <point x="75" y="68"/>
      <point x="139" y="-13"/>
      <point x="273" y="-13" type="curve" smooth="yes"/>
      <point x="493" y="-13"/>
      <point x="575" y="230"/>
      <point x="575" y="470" type="curve" smooth="yes"/>
      <point x="575" y="628"/>
      <point x="511" y="709"/>
    </contour>
    <contour>
      <point x="367" y="646" type="curve" smooth="yes"/>
      <point x="451" y="646"/>
      <point x="486" y="590"/>
      <point x="486" y="478" type="curve" smooth="yes"/>
      <point x="486" y="280"/>
      <point x="435" y="50"/>
      <point x="283" y="50" type="curve" smooth="yes"/>
      <point x="199" y="50"/>
      <point x="164" y="107"/>
      <point x="164" y="221" type="curve" smooth="yes"/>
      <point x="164" y="416"/>
      <point x="215" y="646"/>
    </contour>
  </outline>
</glyph>
<glyph name="zero.tf.zero" format="2">
  <advance width="620"/>
  <outline>
    <contour>
      <point x="119" y="126" type="line"/>
      <point x="159" y="75" type="line"/>
      <point x="504" y="599" type="line"/>
      <point x="462" y="649" type="line"/>
    </contour>
    <component base="zero.lf"/>
  </outline>
</glyph>
